<svg xmlns="http://www.w3.org/2000/svg" version="1.1" xmlns:xlink="http://www.w3.org/1999/xlink" width="1000" height="1000"><g clip-path="url(#SvgjsClipPath1171)"><rect width="1000" height="1000" fill="#2e386f"></rect><g transform="matrix(12.068965517241379,0,0,12.068965517241379,150,192.24137931034483)"><svg xmlns="http://www.w3.org/2000/svg" version="1.1" xmlns:xlink="http://www.w3.org/1999/xlink" width="58" height="51"><svg width="58" height="51" viewBox="0 0 58 51" fill="none" xmlns="http://www.w3.org/2000/svg">
<path fill-rule="evenodd" clip-rule="evenodd" d="M29.4728 41.794C-3.14277 55.908 -5.26573 37.0916 14.5935 26.6203C-10.627 39.9184 -1.72714 56.6634 30.2905 43.1021L29.4728 41.794ZM44.5486 33.9455L45.3333 35.2102C69.6551 19.4418 55.0667 10.7977 34.1409 17.5283C54.4312 11.4533 66.7393 19.5338 44.5486 33.9455Z" fill="#F0F0F0"></path>
<path d="M34.4393 40.6327L34.0762 40.0305L30.6534 40.452L32.8322 44.0653L34.8025 41.2349L34.4393 40.6327Z" fill="#838383"></path>
<path d="M39.2497 34.4473L42.1548 39.265L43.9207 34.9155L39.2497 34.4473Z" fill="#838383"></path>
<path fill-rule="evenodd" clip-rule="evenodd" d="M39.2497 34.4473L32.9868 38.2238L33.3499 38.826L33.7131 39.4282L34.0762 40.0305L34.4393 40.6327L34.8025 41.2349L35.1656 41.8371L35.5287 42.4393L35.8918 43.0415L42.1548 39.265L39.2497 34.4473ZM38.0775 37.6177C37.2946 38.0898 38.0209 39.2942 38.8038 38.8221C39.6736 38.2976 38.9474 37.0932 38.0775 37.6177Z" fill="#838383"></path>
<path fill-rule="evenodd" clip-rule="evenodd" d="M38.895 21.5251C35.0886 19.6143 32.274 16.1755 31.1533 12.0666L27.862 0L24.5708 12.0666C23.4501 16.1755 20.6355 19.6143 16.8291 21.5251L9.15649 25.3768L16.8291 29.2285C20.6355 31.1392 23.4501 34.578 24.5708 38.687L25.1505 40.8121C27.5856 39.9749 30.3039 38.5448 31.3586 37.9343C32.3487 34.3044 34.8352 31.2665 38.1978 29.5784L46.5676 25.3768L38.895 21.5251Z" fill="#F1C27D"></path>
</svg></svg></g></g><defs><clipPath id="SvgjsClipPath1171"><rect width="1000" height="1000" x="0" y="0" rx="350" ry="350"></rect></clipPath></defs></svg>