<svg width="355" height="1889" viewBox="0 0 355 1889" fill="none" xmlns="http://www.w3.org/2000/svg">
<path d="M295.755 1712C318.37 1678.75 330.139 1653.47 325.755 1613.5C322.512 1583.94 313.861 1567.1 295.755 1543.5C260.027 1496.94 199.961 1524.78 157.755 1484C117.627 1445.23 119.426 1404.39 98.6257 1355.67C93.3764 1385.64 91.4125 1408.39 95.89 1436.36C112.863 1472.17 131.994 1501.96 167.755 1534.5C207.833 1570.96 278.229 1551.57 287.255 1605C293.765 1643.53 268.83 1664.26 246.755 1696.5C242.293 1703.02 236.906 1709.57 230.956 1716C233.086 1729.7 233.619 1744.03 232.052 1759.51C257.457 1747.94 281.915 1732.35 295.755 1712Z" fill="#98A5DF"/>
<path d="M195.794 1773.53C196.302 1766.05 196.49 1758.8 196.255 1752C196.211 1750.73 196.162 1749.48 196.106 1748.24C168.236 1771.03 141.755 1787.5 141.755 1787.5C141.755 1787.5 165.922 1783.32 195.794 1773.53Z" fill="#98A5DF"/>
<path d="M60.6389 1355.3C61.5707 1347.72 62.7851 1339.71 64.2551 1331C65.6465 1322.75 67.5601 1315.04 69.9155 1307.77C61.3943 1295.44 54.3049 1282.98 52.255 1264.5C49.7153 1241.61 49.6566 1226.7 59.755 1206C72.5142 1179.84 116.755 1158 116.755 1158C116.755 1158 165.391 1127.83 206.903 1093.4C215.215 1065.57 222.076 1041.58 224.622 1016.74C215.114 1026.92 204.744 1037.3 193.755 1048.5C154.276 1088.75 110.294 1086.15 74.2551 1129.5C49.2312 1159.6 34.4472 1179.22 26.2551 1217.5C14.4723 1272.56 38.0623 1307.17 60.6389 1355.3Z" fill="#98A5DF"/>
<path d="M99.3568 585.103C98.1382 589.935 96.9132 594.677 95.7084 599.341C94.2021 605.171 92.7275 610.879 91.3371 616.486C108.892 625.632 127.005 635.79 143.755 652C191.166 697.882 224.551 721.621 252.255 781.5L252.783 782.641C272.668 825.616 285.573 853.505 281.755 901C280.015 922.65 275.1 940.724 267.653 956.893C268.039 958.899 268.407 960.934 268.755 963C273.195 989.319 272.626 1011.73 268.815 1032.88C307.284 993.687 338.673 960.632 339.255 901C339.475 878.495 336.929 865.643 330.755 844C318.014 799.333 295.768 780.285 268.755 742.5C234.057 693.965 211.841 668.27 168.755 627C147.161 606.316 121.953 596.349 99.3568 585.103Z" fill="#98A5DF"/>
<path d="M56.565 597.431C58.0446 591.531 59.4606 585.555 60.7551 579.5C61.9879 573.734 63.3834 568.203 64.9235 562.88C55.4928 554.124 47.7903 543.101 42.755 528C25.9094 477.479 44.6518 442.609 65.2551 393.5C90.9644 332.221 122.161 304.491 173.255 262C182.973 253.919 192.501 247.896 201.884 242.842C202.337 236.852 202.632 230.595 202.755 224C202.847 219.08 202.717 214.046 202.388 208.926C183.301 216.615 164.59 223.095 143.755 238.5C91.729 276.969 63.676 306.163 36.7551 365C6.47409 431.181 -15.8029 483.718 14.255 550C24.6008 572.814 39.4986 586.539 56.565 597.431Z" fill="#98A5DF"/>
<path d="M230.451 195.873C232.199 207.324 233.326 217.624 233.862 227.548C250.558 219.73 266.933 210.95 283.255 194.5C323.038 154.408 354.255 68.5 354.255 68.5C354.255 68.5 297.127 149.267 246.755 185.5C241.179 189.511 235.76 192.906 230.451 195.873Z" fill="#98A5DF"/>
<path d="M95.89 1436.36C91.4125 1408.39 93.3764 1385.64 98.6257 1355.67C96.9864 1351.83 95.2067 1347.94 93.2551 1344C87.6097 1332.6 81.1499 1323.57 75.0313 1315.01L75.0305 1315.01L75.0283 1315C73.2875 1312.57 71.5744 1310.17 69.9155 1307.77C67.5601 1315.04 65.6465 1322.75 64.2551 1331C62.7851 1339.71 61.5707 1347.72 60.6389 1355.3C63.381 1361.15 66.1081 1367.19 68.7551 1373.5C70.5258 1377.72 72.2476 1381.84 73.9328 1385.88C81.6271 1404.3 88.5572 1420.89 95.89 1436.36Z" fill="#98A5DF"/>
<path fill-rule="evenodd" clip-rule="evenodd" d="M128.255 0C128.255 0 214.674 104.321 228.755 185.5C229.374 189.069 229.939 192.521 230.451 195.873C232.199 207.324 233.326 217.624 233.862 227.548C235.083 250.112 233.256 270.729 228.755 298.5C221.868 340.993 208.437 367.666 192.226 399.861C186.22 411.788 179.833 424.472 173.255 439C162.964 461.729 151.567 479.242 140.662 495.999C124.58 520.711 109.569 543.778 100.755 579.5C100.291 581.381 99.8244 583.249 99.3568 585.103C86.694 578.801 74.8511 572.097 64.9235 562.88C76.3912 523.243 95.8768 495.066 115.876 466.147C135.076 438.382 154.75 409.932 168.255 370C171.114 361.547 173.876 353.642 176.51 346.105C189.222 309.73 198.927 281.959 201.884 242.842C202.337 236.852 202.632 230.595 202.755 224C202.847 219.08 202.717 214.046 202.388 208.926C196.555 118.129 128.255 0 128.255 0ZM56.565 597.431C54.4523 605.856 52.21 614.125 50.0066 622.251C35.36 676.267 22.4348 723.935 60.7551 768.5C73.3749 783.176 87.462 788.845 102.001 794.696C114.301 799.646 126.924 804.726 139.255 815.5C183.568 854.216 204.344 886.448 218.755 943.5C225.69 970.957 226.933 994.202 224.622 1016.74C222.076 1041.58 215.215 1065.57 206.903 1093.4C206.315 1095.37 205.72 1097.35 205.119 1099.36L205.117 1099.37C203.694 1104.12 202.235 1108.99 200.755 1114C187.292 1159.57 159.614 1188.52 132.465 1216.93C107.19 1243.37 82.3733 1269.33 69.9155 1307.77C71.5744 1310.17 73.2875 1312.57 75.0283 1315L75.0305 1315.01L75.0313 1315.01C81.1499 1323.57 87.6097 1332.6 93.2551 1344C95.2067 1347.94 96.9864 1351.83 98.6257 1355.67C99.2857 1351.9 99.9976 1348.02 100.755 1344C110.064 1294.6 137.343 1265.67 165.665 1235.63C189.217 1210.66 213.491 1184.92 228.755 1146C232.931 1135.35 237.076 1125.33 241.051 1115.71C253.228 1086.25 263.813 1060.65 268.815 1032.88C272.626 1011.73 273.195 989.319 268.755 963C268.407 960.934 268.039 958.899 267.653 956.893C255.266 892.542 223.695 858.843 178.845 810.97C177.004 809.005 175.141 807.016 173.255 805C162.328 793.316 151.044 786.029 140.182 779.014C125.664 769.638 111.901 760.75 100.755 742.5C74.5093 699.525 80.2459 661.214 91.3371 616.486C89.2316 615.389 87.134 614.307 85.0478 613.23C75.1831 608.14 65.572 603.18 56.565 597.431ZM73.9328 1385.88C81.6271 1404.3 88.5572 1420.89 95.89 1436.36C97.0562 1443.65 98.6593 1451.29 100.755 1459.5C108.345 1489.24 123.276 1507.46 138.967 1526.6C150.926 1541.19 163.326 1556.32 173.255 1577.5C179.686 1591.22 186.209 1604.04 192.464 1616.35C210.088 1651 225.591 1681.49 230.956 1716C233.086 1729.7 233.619 1744.03 232.052 1759.51C231.367 1766.28 230.282 1773.26 228.755 1780.5C218.971 1826.9 173.255 1888.5 173.255 1888.5C173.255 1888.5 192.259 1825.48 195.794 1773.53C196.302 1766.05 196.49 1758.8 196.255 1752C196.211 1750.73 196.162 1749.48 196.106 1748.24C193.78 1696.02 181.328 1664.57 162.897 1618.02L162.894 1618.01C161.229 1613.81 159.515 1609.48 157.755 1605C145.85 1574.7 128.863 1553.38 112.423 1532.75C91.8033 1506.88 72.0445 1482.08 64.2551 1442C57.6714 1408.12 57 1384.92 60.6389 1355.3C63.381 1361.15 66.1081 1367.19 68.7551 1373.5C70.5258 1377.72 72.2476 1381.84 73.9328 1385.88Z" fill="#FFC1BD"/>
<path d="M60.7551 579.5C59.4606 585.555 58.0446 591.531 56.565 597.431C65.572 603.18 75.1831 608.14 85.0478 613.23C87.134 614.307 89.2316 615.389 91.3371 616.486C92.7275 610.879 94.2021 605.171 95.7084 599.341C96.9132 594.677 98.1382 589.935 99.3568 585.103C86.694 578.801 74.8511 572.097 64.9235 562.88C63.3834 568.203 61.9879 573.734 60.7551 579.5Z" fill="#98A5DF"/>
</svg>
