<svg width="24" height="24" viewBox="0 0 24 24" fill="none" xmlns="http://www.w3.org/2000/svg">
<path d="M12 24C5.3832 24 0 18.6168 0 12C0 5.3832 5.3832 0 12 0C18.6168 0 24 5.3832 24 12C24 18.6168 18.6168 24 12 24ZM12.7155 16.7736C12.6704 16.7736 12.6272 16.7909 12.5949 16.8224C12.5613 16.8549 12.5424 16.9 12.5424 16.9469V22.6584C12.5424 22.7112 12.5664 22.7611 12.6075 22.7939C12.6384 22.8187 12.6765 22.8317 12.7157 22.8317C12.7285 22.8317 12.7413 22.8304 12.7541 22.8275C14.5795 22.4123 16.2544 20.4589 17.2341 17.6019C17.2496 17.5563 17.2456 17.5061 17.2227 17.4635C17.1997 17.4208 17.1603 17.3899 17.1133 17.3779C15.7427 17.0256 14.2648 16.8224 12.7211 16.7739C12.7189 16.7736 12.7173 16.7736 12.7155 16.7736ZM11.2792 16.7739C9.73467 16.8227 8.25707 17.0261 6.8872 17.3784C6.84027 17.3904 6.8008 17.4213 6.77787 17.464C6.75494 17.5067 6.75067 17.5568 6.7664 17.6024C7.7464 20.4589 9.4208 22.412 11.2464 22.8272C11.2592 22.8301 11.272 22.8315 11.2848 22.8315C11.3237 22.8315 11.3619 22.8184 11.3928 22.7936C11.4339 22.7608 11.4579 22.7109 11.4579 22.6581V16.9469C11.4579 16.9 11.4389 16.8552 11.4053 16.8224C11.3728 16.7909 11.3296 16.7736 11.2848 16.7736C11.2827 16.7739 11.2808 16.7739 11.2792 16.7739ZM5.53627 17.8C5.51627 17.8 5.49626 17.8035 5.47733 17.8104C4.79173 18.0584 4.16533 18.3459 3.61493 18.6645C3.57093 18.6901 3.54027 18.7336 3.5312 18.7837C3.52213 18.8339 3.53547 18.8853 3.568 18.9245C4.61813 20.2008 5.96773 21.2395 7.47067 21.928C7.49387 21.9387 7.5184 21.9437 7.54267 21.9437C7.59493 21.9437 7.64613 21.92 7.67973 21.8765C7.72907 21.8128 7.728 21.7237 7.67707 21.6611C6.86133 20.6579 6.19627 19.3984 5.70053 17.9181C5.6856 17.8739 5.6536 17.8376 5.61174 17.8171C5.588 17.8059 5.56213 17.8 5.53627 17.8ZM18.4643 17.7984C18.4384 17.7984 18.4125 17.8043 18.3888 17.8157C18.3469 17.836 18.3149 17.8725 18.3 17.9168C17.804 19.3976 17.1387 20.6573 16.3227 21.6613C16.272 21.724 16.2709 21.8131 16.3203 21.8768C16.3539 21.9203 16.4051 21.944 16.4573 21.944C16.4816 21.944 16.5061 21.9389 16.5296 21.9283C18.0328 21.2397 19.3821 20.2011 20.4317 18.9251C20.464 18.8859 20.4773 18.8344 20.4685 18.7843C20.4595 18.7341 20.4291 18.6907 20.3848 18.6651C19.8288 18.3429 19.2027 18.0549 18.5235 17.8091C18.5043 17.8019 18.4843 17.7984 18.4643 17.7984ZM19.3725 12.5421C19.2792 12.5421 19.2024 12.6163 19.1995 12.7096C19.1549 14.0424 18.9829 15.3376 18.6883 16.5592C18.6677 16.6456 18.7155 16.7336 18.7989 16.7632C19.6325 17.0581 20.388 17.4056 21.0448 17.796C21.0725 17.8125 21.1029 17.8203 21.1331 17.8203C21.1912 17.8203 21.2477 17.7912 21.2805 17.7384C22.2157 16.2312 22.772 14.4984 22.8891 12.7267C22.892 12.6789 22.8755 12.6317 22.8427 12.5968C22.8099 12.5619 22.764 12.5419 22.716 12.5419L19.3725 12.5421ZM1.284 12.5421C1.236 12.5421 1.19013 12.5621 1.15733 12.5971C1.1248 12.632 1.108 12.6792 1.11093 12.7269C1.228 14.4981 1.784 16.2309 2.71893 17.7379C2.75147 17.7907 2.80826 17.8197 2.8664 17.8197C2.89653 17.8197 2.92693 17.812 2.95467 17.7955C3.61093 17.4059 4.36667 17.0589 5.20107 16.7635C5.28453 16.7339 5.33227 16.6459 5.31174 16.5595C5.01707 15.3376 4.84533 14.0424 4.80053 12.7096C4.7976 12.6163 4.7208 12.5421 4.62747 12.5421H1.284ZM6.06053 12.5421C6.0136 12.5421 5.96827 12.5613 5.93573 12.5952C5.9032 12.6291 5.8856 12.6749 5.88747 12.7219C5.93387 13.9267 6.0944 15.1027 6.36427 16.2179C6.3752 16.2629 6.40373 16.3019 6.44373 16.3259C6.47093 16.3421 6.5016 16.3504 6.5328 16.3504C6.54747 16.3504 6.56213 16.3485 6.57653 16.3448C8.056 15.9595 9.64187 15.7389 11.2901 15.6893C11.3837 15.6864 11.4581 15.6099 11.4581 15.5163V12.7155C11.4581 12.6197 11.3805 12.5421 11.2848 12.5421H6.06053ZM12.7155 12.5421C12.6197 12.5421 12.5421 12.6197 12.5421 12.7155V15.5163C12.5421 15.6099 12.6165 15.6867 12.7101 15.6893C14.3595 15.7389 15.9453 15.9592 17.424 16.3443C17.4384 16.348 17.4531 16.3499 17.4677 16.3499C17.4989 16.3499 17.5296 16.3416 17.5568 16.3253C17.5968 16.3016 17.6253 16.2627 17.6363 16.2176C17.9059 15.1029 18.0661 13.9272 18.1128 12.7224C18.1147 12.6755 18.0973 12.6296 18.0645 12.5957C18.032 12.5619 17.9867 12.5427 17.9397 12.5427H12.7155V12.5421ZM21.1331 6.17973C21.1029 6.17973 21.0725 6.18747 21.0448 6.204C20.3885 6.59387 19.6331 6.94133 18.7989 7.2368C18.7155 7.2664 18.6677 7.3544 18.6883 7.4408C18.9829 8.6624 19.1547 9.9576 19.1995 11.2904C19.2024 11.3837 19.2792 11.4579 19.3725 11.4579H22.716C22.764 11.4579 22.8099 11.4379 22.8427 11.4029C22.8752 11.368 22.892 11.3208 22.8891 11.2731C22.772 9.5016 22.2157 7.76853 21.2805 6.2616C21.2477 6.2088 21.1912 6.17973 21.1331 6.17973ZM17.4677 7.65013C17.4531 7.65013 17.4384 7.652 17.424 7.65573C15.9459 8.0408 14.36 8.26107 12.7101 8.31067C12.6165 8.31333 12.5421 8.39013 12.5421 8.48373V11.2843C12.5421 11.38 12.6197 11.4576 12.7155 11.4576H17.9395C17.9864 11.4576 18.0317 11.4384 18.0643 11.4045C18.0968 11.3707 18.1144 11.3248 18.1125 11.2776C18.0661 10.0731 17.9059 8.89707 17.636 7.7824C17.6251 7.73733 17.5965 7.6984 17.5565 7.67467C17.5296 7.65867 17.4989 7.65013 17.4677 7.65013ZM6.53253 7.6496C6.50133 7.6496 6.47067 7.65787 6.44347 7.67413C6.40347 7.69813 6.37494 7.7368 6.364 7.78213C6.09414 8.89733 5.9336 10.0733 5.8872 11.2779C5.88533 11.3248 5.90267 11.3707 5.93547 11.4048C5.968 11.4387 6.01333 11.4579 6.06027 11.4579H11.2843C11.38 11.4579 11.4576 11.3803 11.4576 11.2845V8.484C11.4576 8.3904 11.3832 8.3136 11.2896 8.31093C9.64133 8.26133 8.05547 8.0408 6.576 7.65547C6.56187 7.65147 6.5472 7.6496 6.53253 7.6496ZM2.8664 6.18027C2.80826 6.18027 2.75173 6.20933 2.71893 6.26213C1.784 7.76907 1.228 9.50187 1.11093 11.2731C1.108 11.3208 1.12453 11.368 1.15733 11.4029C1.19013 11.4379 1.236 11.4579 1.284 11.4579H4.62747C4.7208 11.4579 4.7976 11.3837 4.80053 11.2904C4.84533 9.9576 5.01707 8.6624 5.31174 7.44053C5.33227 7.35413 5.28453 7.26613 5.20107 7.23653C4.36587 6.94107 3.61013 6.59387 2.95467 6.20453C2.92693 6.18827 2.89653 6.18027 2.8664 6.18027ZM12.7155 1.16853C12.6765 1.16853 12.6384 1.1816 12.6072 1.2064C12.5661 1.2392 12.5421 1.28907 12.5421 1.34187V7.05333C12.5421 7.10027 12.5611 7.14507 12.5947 7.17787C12.6272 7.20933 12.6704 7.22667 12.7152 7.22667C12.7171 7.22667 12.7187 7.22667 12.7205 7.22667C14.2653 7.17813 15.7432 6.97493 17.1128 6.62267C17.1597 6.61067 17.1992 6.57973 17.2221 6.53707C17.2451 6.4944 17.2493 6.44427 17.2336 6.39867C16.2541 3.54187 14.5792 1.58827 12.7536 1.17307C12.7411 1.16987 12.7283 1.16853 12.7155 1.16853ZM11.2845 1.16853C11.2717 1.16853 11.2587 1.16987 11.2461 1.1728C9.4208 1.588 7.74613 3.54133 6.76613 6.3976C6.75067 6.44347 6.75467 6.4936 6.7776 6.536C6.80053 6.5784 6.84 6.6096 6.88693 6.6216C8.2576 6.97413 9.73547 7.1776 11.2789 7.2264C11.2805 7.2264 11.2824 7.2264 11.2843 7.2264C11.3293 7.2264 11.3725 7.20907 11.4048 7.1776C11.4384 7.1448 11.4573 7.1 11.4573 7.05307V1.3416C11.4573 1.2888 11.4333 1.2392 11.3923 1.20613C11.3619 1.1816 11.3235 1.16853 11.2845 1.16853ZM16.4573 2.05627C16.4051 2.05627 16.3539 2.08 16.3203 2.12347C16.2709 2.1872 16.272 2.27627 16.3227 2.33893C17.1387 3.34293 17.804 4.60267 18.3 6.08347C18.3149 6.12773 18.3469 6.164 18.3888 6.18427C18.4125 6.19573 18.4384 6.2016 18.4643 6.2016C18.4843 6.2016 18.5043 6.19813 18.5232 6.1912C19.204 5.9448 19.8304 5.6568 20.3848 5.3352C20.4288 5.3096 20.4592 5.26613 20.4683 5.216C20.4773 5.16587 20.4637 5.1144 20.4315 5.0752C19.3816 3.79893 18.0323 2.76027 16.5291 2.072C16.5061 2.06133 16.4816 2.05627 16.4573 2.05627ZM7.54267 2.05627C7.5184 2.05627 7.49387 2.06133 7.47067 2.072C5.96747 2.76053 4.61787 3.7992 3.568 5.07547C3.53573 5.11467 3.5224 5.16613 3.5312 5.21627C3.54027 5.2664 3.57093 5.30987 3.61493 5.33547C4.1648 5.65413 4.79147 5.9416 5.47733 6.1896C5.49626 6.19653 5.51627 6.2 5.53627 6.2C5.56213 6.2 5.58774 6.19413 5.61174 6.18267C5.6536 6.1624 5.6856 6.12587 5.70053 6.08187C6.19653 4.6016 6.8616 3.3424 7.67707 2.33893C7.72773 2.27627 7.7288 2.1872 7.67973 2.12347C7.64613 2.08 7.59493 2.05627 7.54267 2.05627Z" fill="white"/>
</svg>
