<svg width="25" height="25" viewBox="0 0 25 25" fill="none" xmlns="http://www.w3.org/2000/svg">
<path d="M21.2152 22.3612L21.7574 23.2014L21.2152 22.3612ZM21.2148 8.68725L21.8573 7.92092L21.8573 7.92093L21.2148 8.68725ZM3.45245 8.07106C3.06193 7.68053 3.06193 7.04737 3.45245 6.65684L9.81641 0.292883C10.2069 -0.0976414 10.8401 -0.0976414 11.2306 0.292883C11.6212 0.683407 11.6212 1.31657 11.2306 1.7071L5.57377 7.36395L11.2306 13.0208C11.6212 13.4113 11.6212 14.0445 11.2306 14.435C10.8401 14.8255 10.2069 14.8255 9.81641 14.435L3.45245 8.07106ZM0 23.2434V22.2434C4.86046 22.2434 9.5862 22.3585 13.426 22.3057C15.3368 22.2795 16.9829 22.2116 18.2688 22.0712C18.9117 22.001 19.4449 21.9147 19.8657 21.8127C20.3004 21.7072 20.5507 21.5998 20.6729 21.521L21.2152 22.3612L21.7574 23.2014C21.3596 23.4581 20.858 23.63 20.3372 23.7563C19.8026 23.886 19.1769 23.984 18.4859 24.0594C17.104 24.2103 15.3824 24.279 13.4535 24.3055C9.61373 24.3583 4.77189 24.2434 0 24.2434V23.2434ZM21.2152 22.3612L20.6729 21.521C22.1267 20.5828 23.0072 18.3629 23 15.7789C22.9928 13.2181 22.107 10.7402 20.5724 9.45357L21.2148 8.68725L21.8573 7.92093C24.0055 9.72198 24.9918 12.8731 24.9999 15.7733C25.008 18.6504 24.0473 21.7237 21.7574 23.2014L21.2152 22.3612ZM21.2148 8.68725L20.5724 9.45358C19.8225 8.82497 18.4737 8.48464 15.741 8.3709C13.0554 8.25912 9.37258 8.36395 4.15956 8.36395V7.36395V6.36395C9.2808 6.36395 13.0857 6.25865 15.8242 6.37263C18.5156 6.48465 20.5273 6.80598 21.8573 7.92092L21.2148 8.68725Z" fill="white"/>
</svg>
