<svg width="155" height="57" viewBox="0 0 155 57" fill="none" xmlns="http://www.w3.org/2000/svg">
<path fill-rule="evenodd" clip-rule="evenodd" d="M33.8391 41.794C-3.60837 55.908 -6.04584 37.0916 16.7555 26.6203C-12.2014 39.9184 -1.98302 56.6634 34.778 43.1021L33.8391 41.794ZM51.1484 33.9455L52.0494 35.2102C79.9743 19.4418 63.2248 10.7977 39.1988 17.5283C62.4951 11.4533 76.6265 19.5338 51.1484 33.9455Z" fill="#F0F0F0"/>
<path d="M39.5415 40.6327L39.1246 40.0305L35.1948 40.452L37.6963 44.0653L39.9585 41.2349L39.5415 40.6327Z" fill="white"/>
<path d="M45.0646 34.4473L48.4 39.265L50.4275 34.9155L45.0646 34.4473Z" fill="white"/>
<path fill-rule="evenodd" clip-rule="evenodd" d="M45.0646 34.4473L37.8738 38.2238L38.2908 38.826L38.7077 39.4282L39.1246 40.0305L39.5415 40.6327L39.9585 41.2349L40.3754 41.8371L40.7923 42.4393L41.2092 43.0415L48.4 39.265L45.0646 34.4473ZM43.7187 37.6177C42.8199 38.0898 43.6537 39.2942 44.5526 38.8221C45.5513 38.2976 44.7174 37.0932 43.7187 37.6177Z" fill="white"/>
<path fill-rule="evenodd" clip-rule="evenodd" d="M44.0532 21.2609C40.0749 19.5215 37.0455 16.1435 35.7479 12L31.9899 0L28.2319 12C26.9343 16.1435 23.9049 19.5215 19.9266 21.2609L10.5132 25.3768L19.9266 29.4926C23.9049 31.232 26.9343 34.61 28.2319 38.7535L28.8766 40.8121C31.6726 39.9749 34.7935 38.5448 36.0045 37.9343C37.1391 34.3112 39.788 31.3575 43.2667 29.8365L53.4667 25.3768L44.0532 21.2609Z" fill="white"/>
<path d="M83.2506 19.808H89.1706V20.816H83.2506V19.808ZM83.3786 24.976H90.1146V26H82.1946V14.8H89.8746V15.824H83.3786V24.976ZM85.0106 13.888L87.2026 11.904H88.7226L86.1306 13.888H85.0106ZM95.0794 26.08C94.29 26.08 93.682 25.8667 93.2554 25.44C92.8287 25.0133 92.6154 24.4107 92.6154 23.632V15.744H93.7514V23.568C93.7514 24.0587 93.874 24.4373 94.1194 24.704C94.3754 24.9707 94.738 25.104 95.2074 25.104C95.7087 25.104 96.1247 24.96 96.4554 24.672L96.8554 25.488C96.6314 25.6907 96.3594 25.84 96.0394 25.936C95.73 26.032 95.41 26.08 95.0794 26.08ZM91.1114 18.544V17.6H96.3114V18.544H91.1114ZM102.05 26.08C101.24 26.08 100.509 25.8987 99.8585 25.536C99.2185 25.1627 98.7118 24.656 98.3385 24.016C97.9651 23.3653 97.7785 22.624 97.7785 21.792C97.7785 20.9493 97.9651 20.208 98.3385 19.568C98.7118 18.928 99.2185 18.4267 99.8585 18.064C100.498 17.7013 101.229 17.52 102.05 17.52C102.882 17.52 103.618 17.7013 104.258 18.064C104.909 18.4267 105.416 18.928 105.778 19.568C106.152 20.208 106.338 20.9493 106.338 21.792C106.338 22.624 106.152 23.3653 105.778 24.016C105.416 24.656 104.909 25.1627 104.258 25.536C103.608 25.8987 102.872 26.08 102.05 26.08ZM102.05 25.072C102.658 25.072 103.197 24.9387 103.666 24.672C104.136 24.3947 104.504 24.0107 104.77 23.52C105.048 23.0187 105.186 22.4427 105.186 21.792C105.186 21.1307 105.048 20.5547 104.77 20.064C104.504 19.5733 104.136 19.1947 103.666 18.928C103.197 18.6507 102.664 18.512 102.066 18.512C101.469 18.512 100.936 18.6507 100.466 18.928C99.9971 19.1947 99.6238 19.5733 99.3465 20.064C99.0691 20.5547 98.9305 21.1307 98.9305 21.792C98.9305 22.4427 99.0691 23.0187 99.3465 23.52C99.6238 24.0107 99.9971 24.3947 100.466 24.672C100.936 24.9387 101.464 25.072 102.05 25.072ZM108.658 26V17.6H109.794V26H108.658ZM109.234 15.744C108.999 15.744 108.802 15.664 108.642 15.504C108.482 15.344 108.402 15.152 108.402 14.928C108.402 14.704 108.482 14.5173 108.642 14.368C108.802 14.208 108.999 14.128 109.234 14.128C109.468 14.128 109.666 14.2027 109.826 14.352C109.986 14.5013 110.066 14.688 110.066 14.912C110.066 15.1467 109.986 15.344 109.826 15.504C109.676 15.664 109.479 15.744 109.234 15.744ZM112.955 26V14.128H114.091V26H112.955ZM120.819 26.08C119.945 26.08 119.177 25.8987 118.515 25.536C117.854 25.1627 117.337 24.656 116.963 24.016C116.59 23.3653 116.403 22.624 116.403 21.792C116.403 20.96 116.579 20.224 116.931 19.584C117.294 18.944 117.785 18.4427 118.403 18.08C119.033 17.7067 119.737 17.52 120.515 17.52C121.305 17.52 122.003 17.7013 122.611 18.064C123.23 18.416 123.715 18.9173 124.067 19.568C124.419 20.208 124.595 20.9493 124.595 21.792C124.595 21.8453 124.59 21.904 124.579 21.968C124.579 22.0213 124.579 22.08 124.579 22.144H117.267V21.296H123.971L123.523 21.632C123.523 21.024 123.39 20.4853 123.123 20.016C122.867 19.536 122.515 19.1627 122.067 18.896C121.619 18.6293 121.102 18.496 120.515 18.496C119.939 18.496 119.422 18.6293 118.963 18.896C118.505 19.1627 118.147 19.536 117.891 20.016C117.635 20.496 117.507 21.0453 117.507 21.664V21.84C117.507 22.48 117.646 23.0453 117.923 23.536C118.211 24.016 118.606 24.3947 119.107 24.672C119.619 24.9387 120.201 25.072 120.851 25.072C121.363 25.072 121.838 24.9813 122.275 24.8C122.723 24.6187 123.107 24.3413 123.427 23.968L124.067 24.704C123.694 25.152 123.225 25.4933 122.659 25.728C122.105 25.9627 121.491 26.08 120.819 26.08ZM85.3786 46.08C84.5679 46.08 83.8373 45.8987 83.1866 45.536C82.5466 45.1627 82.0399 44.656 81.6666 44.016C81.2933 43.3653 81.1066 42.624 81.1066 41.792C81.1066 40.9493 81.2933 40.208 81.6666 39.568C82.0399 38.928 82.5466 38.4267 83.1866 38.064C83.8266 37.7013 84.5573 37.52 85.3786 37.52C86.2106 37.52 86.9466 37.7013 87.5866 38.064C88.2373 38.4267 88.7439 38.928 89.1066 39.568C89.4799 40.208 89.6666 40.9493 89.6666 41.792C89.6666 42.624 89.4799 43.3653 89.1066 44.016C88.7439 44.656 88.2373 45.1627 87.5866 45.536C86.9359 45.8987 86.1999 46.08 85.3786 46.08ZM85.3786 45.072C85.9866 45.072 86.5253 44.9387 86.9946 44.672C87.4639 44.3947 87.8319 44.0107 88.0986 43.52C88.3759 43.0187 88.5146 42.4427 88.5146 41.792C88.5146 41.1307 88.3759 40.5547 88.0986 40.064C87.8319 39.5733 87.4639 39.1947 86.9946 38.928C86.5253 38.6507 85.9919 38.512 85.3946 38.512C84.7973 38.512 84.2639 38.6507 83.7946 38.928C83.3253 39.1947 82.9519 39.5733 82.6746 40.064C82.3973 40.5547 82.2586 41.1307 82.2586 41.792C82.2586 42.4427 82.3973 43.0187 82.6746 43.52C82.9519 44.0107 83.3253 44.3947 83.7946 44.672C84.2639 44.9387 84.7919 45.072 85.3786 45.072ZM95.4579 46.08C94.7432 46.08 94.1192 45.9467 93.5859 45.68C93.0525 45.4133 92.6365 45.0133 92.3379 44.48C92.0499 43.9467 91.9059 43.28 91.9059 42.48V37.6H93.0419V42.352C93.0419 43.248 93.2605 43.9253 93.6979 44.384C94.1459 44.832 94.7699 45.056 95.5699 45.056C96.1565 45.056 96.6632 44.9387 97.0899 44.704C97.5272 44.4587 97.8579 44.1067 98.0819 43.648C98.3165 43.1893 98.4339 42.64 98.4339 42V37.6H99.5699V46H98.4819V43.696L98.6579 44.112C98.3912 44.7307 97.9752 45.216 97.4099 45.568C96.8552 45.9093 96.2045 46.08 95.4579 46.08ZM107.072 46.08C106.336 46.08 105.675 45.9147 105.088 45.584C104.501 45.2427 104.037 44.752 103.696 44.112C103.355 43.472 103.184 42.6987 103.184 41.792C103.184 40.8747 103.355 40.1013 103.696 39.472C104.048 38.832 104.517 38.3467 105.104 38.016C105.691 37.6853 106.347 37.52 107.072 37.52C107.872 37.52 108.587 37.7013 109.216 38.064C109.856 38.416 110.357 38.912 110.72 39.552C111.083 40.192 111.264 40.9387 111.264 41.792C111.264 42.6347 111.083 43.3813 110.72 44.032C110.357 44.672 109.856 45.1733 109.216 45.536C108.587 45.8987 107.872 46.08 107.072 46.08ZM102.736 46V34.128H103.872V40.08L103.712 41.776L103.824 43.472V46H102.736ZM106.992 45.072C107.589 45.072 108.123 44.9387 108.592 44.672C109.061 44.3947 109.435 44.0107 109.712 43.52C109.989 43.0187 110.128 42.4427 110.128 41.792C110.128 41.1307 109.989 40.5547 109.712 40.064C109.435 39.5733 109.061 39.1947 108.592 38.928C108.123 38.6507 107.589 38.512 106.992 38.512C106.395 38.512 105.856 38.6507 105.376 38.928C104.907 39.1947 104.533 39.5733 104.256 40.064C103.989 40.5547 103.856 41.1307 103.856 41.792C103.856 42.4427 103.989 43.0187 104.256 43.52C104.533 44.0107 104.907 44.3947 105.376 44.672C105.856 44.9387 106.395 45.072 106.992 45.072ZM113.58 46V34.128H114.716V46H113.58ZM117.876 46V37.6H119.012V46H117.876ZM118.452 35.744C118.218 35.744 118.02 35.664 117.86 35.504C117.7 35.344 117.62 35.152 117.62 34.928C117.62 34.704 117.7 34.5173 117.86 34.368C118.02 34.208 118.218 34.128 118.452 34.128C118.687 34.128 118.884 34.2027 119.044 34.352C119.204 34.5013 119.284 34.688 119.284 34.912C119.284 35.1467 119.204 35.344 119.044 35.504C118.895 35.664 118.698 35.744 118.452 35.744ZM125.741 46.08C124.867 46.08 124.099 45.8987 123.437 45.536C122.776 45.1627 122.259 44.656 121.885 44.016C121.512 43.3653 121.325 42.624 121.325 41.792C121.325 40.96 121.501 40.224 121.853 39.584C122.216 38.944 122.707 38.4427 123.325 38.08C123.955 37.7067 124.659 37.52 125.437 37.52C126.227 37.52 126.925 37.7013 127.533 38.064C128.152 38.416 128.637 38.9173 128.989 39.568C129.341 40.208 129.517 40.9493 129.517 41.792C129.517 41.8453 129.512 41.904 129.501 41.968C129.501 42.0213 129.501 42.08 129.501 42.144H122.189V41.296H128.893L128.445 41.632C128.445 41.024 128.312 40.4853 128.045 40.016C127.789 39.536 127.437 39.1627 126.989 38.896C126.541 38.6293 126.024 38.496 125.437 38.496C124.861 38.496 124.344 38.6293 123.885 38.896C123.427 39.1627 123.069 39.536 122.813 40.016C122.557 40.496 122.429 41.0453 122.429 41.664V41.84C122.429 42.48 122.568 43.0453 122.845 43.536C123.133 44.016 123.528 44.3947 124.029 44.672C124.541 44.9387 125.123 45.072 125.773 45.072C126.285 45.072 126.76 44.9813 127.197 44.8C127.645 44.6187 128.029 44.3413 128.349 43.968L128.989 44.704C128.616 45.152 128.147 45.4933 127.581 45.728C127.027 45.9627 126.413 46.08 125.741 46.08ZM124.381 36.288L126.573 34.304H128.093L125.501 36.288H124.381ZM135.398 46.08C134.523 46.08 133.755 45.8987 133.094 45.536C132.432 45.1627 131.915 44.656 131.542 44.016C131.168 43.3653 130.982 42.624 130.982 41.792C130.982 40.96 131.158 40.224 131.51 39.584C131.872 38.944 132.363 38.4427 132.982 38.08C133.611 37.7067 134.315 37.52 135.094 37.52C135.883 37.52 136.582 37.7013 137.19 38.064C137.808 38.416 138.294 38.9173 138.646 39.568C138.998 40.208 139.174 40.9493 139.174 41.792C139.174 41.8453 139.168 41.904 139.158 41.968C139.158 42.0213 139.158 42.08 139.158 42.144H131.846V41.296H138.55L138.102 41.632C138.102 41.024 137.968 40.4853 137.702 40.016C137.446 39.536 137.094 39.1627 136.646 38.896C136.198 38.6293 135.68 38.496 135.094 38.496C134.518 38.496 134 38.6293 133.542 38.896C133.083 39.1627 132.726 39.536 132.47 40.016C132.214 40.496 132.086 41.0453 132.086 41.664V41.84C132.086 42.48 132.224 43.0453 132.502 43.536C132.79 44.016 133.184 44.3947 133.686 44.672C134.198 44.9387 134.779 45.072 135.43 45.072C135.942 45.072 136.416 44.9813 136.854 44.8C137.302 44.6187 137.686 44.3413 138.006 43.968L138.646 44.704C138.272 45.152 137.803 45.4933 137.238 45.728C136.683 45.9627 136.07 46.08 135.398 46.08Z" fill="white"/>
</svg>
