<svg width="24" height="24" viewBox="0 0 24 24" fill="none" xmlns="http://www.w3.org/2000/svg">
<path d="M2 2.32323C2 1.64982 2.22523 1.09426 2.67568 0.656566C3.12612 0.218849 3.71172 0 4.43243 0C5.14029 0 5.71299 0.215475 6.15058 0.646465C6.60102 1.09091 6.82625 1.67002 6.82625 2.38384C6.82625 3.0303 6.60747 3.56901 6.16988 4C5.71944 4.44444 5.12741 4.66667 4.39382 4.66667H4.37452C3.66666 4.66667 3.09396 4.44444 2.65637 4C2.21878 3.55556 2 2.99663 2 2.32323ZM2.25097 20V6.50505H6.53668V20H2.25097ZM8.9112 20H13.1969V12.4646C13.1969 11.9933 13.2484 11.6296 13.3514 11.3737C13.5315 10.9158 13.805 10.5286 14.1718 10.2121C14.5386 9.89562 14.9987 9.73737 15.5521 9.73737C16.9936 9.73737 17.7143 10.7542 17.7143 12.7879V20H22V12.2626C22 10.2694 21.5496 8.75758 20.6486 7.72727C19.7477 6.69697 18.5573 6.18182 17.0772 6.18182C15.417 6.18182 14.1236 6.92929 13.1969 8.42424V8.46465H13.1776L13.1969 8.42424V6.50505H8.9112C8.93693 6.93602 8.94981 8.27608 8.94981 10.5253C8.94981 12.7744 8.93693 15.9326 8.9112 20Z" fill="white"/>
</svg>
