<svg width="75" height="59" viewBox="0 0 75 59" fill="none" xmlns="http://www.w3.org/2000/svg">
<g clip-path="url(#clip0_4002_1392)">
<path d="M3.54004 47.3045H70.3503L72.1104 46.2564" stroke="white" stroke-width="0.862667"/>
<mask id="mask0_4002_1392" style="mask-type:luminance" maskUnits="userSpaceOnUse" x="0" y="0" width="75" height="59">
<path d="M0 6.8844e-06H75V59H0V6.8844e-06Z" fill="white"/>
</mask>
<g mask="url(#mask0_4002_1392)">
<path d="M12.1387 50.6444H12.9436L13.8496 52.391L14.191 53.1673H14.2118C14.1801 52.7953 14.116 52.2994 14.116 51.8843V50.6444H14.8621V54.1592H14.0572L13.1514 52.407L12.8104 51.6416H12.789C12.821 52.0297 12.8848 52.4986 12.8848 52.9137V54.1592H12.1387V50.6444Z" fill="white"/>
</g>
<mask id="mask1_4002_1392" style="mask-type:luminance" maskUnits="userSpaceOnUse" x="0" y="0" width="75" height="59">
<path d="M0 6.8844e-06H75V59H0V6.8844e-06Z" fill="white"/>
</mask>
<g mask="url(#mask1_4002_1392)">
<path d="M17.2145 52.8222C17.2145 52.3587 17.049 52.0622 16.7294 52.0622C16.4043 52.0622 16.2444 52.3587 16.2444 52.8222C16.2444 53.2858 16.4043 53.5822 16.7294 53.5822C17.049 53.5822 17.2145 53.2858 17.2145 52.8222ZM15.4395 52.8222C15.4395 51.9326 16.058 51.4205 16.7294 51.4205C17.3956 51.4205 18.0139 51.9326 18.0139 52.8222C18.0139 53.7119 17.3956 54.2239 16.7294 54.2239C16.058 54.2239 15.4395 53.7119 15.4395 52.8222Z" fill="white"/>
</g>
<mask id="mask2_4002_1392" style="mask-type:luminance" maskUnits="userSpaceOnUse" x="0" y="0" width="75" height="59">
<path d="M0 6.8844e-06H75V59H0V6.8844e-06Z" fill="white"/>
</mask>
<g mask="url(#mask2_4002_1392)">
<path d="M18.5264 51.4853H19.1658L19.2193 51.9545H19.2404C19.4324 51.5932 19.7202 51.4208 19.9922 51.4208C20.1412 51.4208 20.232 51.4422 20.3064 51.4746L20.1785 52.1591C20.0824 52.1323 20.0027 52.116 19.8907 52.116C19.6935 52.116 19.4486 52.2453 19.3098 52.6066V54.1593H18.5264V51.4853Z" fill="white"/>
</g>
<mask id="mask3_4002_1392" style="mask-type:luminance" maskUnits="userSpaceOnUse" x="0" y="0" width="75" height="59">
<path d="M0 6.8844e-06H75V59H0V6.8844e-06Z" fill="white"/>
</mask>
<g mask="url(#mask3_4002_1392)">
<path d="M22.1464 53.3344V52.2399C22.0077 52.1105 21.8533 52.0674 21.7096 52.0674C21.4591 52.0674 21.2351 52.3047 21.2351 52.8114C21.2351 53.3398 21.4109 53.577 21.7146 53.577C21.8851 53.577 22.0186 53.5122 22.1464 53.3344ZM20.4302 52.8221C20.4302 51.9488 20.9685 51.4207 21.5282 51.4207C21.8213 51.4207 21.9974 51.5284 22.1785 51.7008L22.1464 51.2911V50.38H22.9299V54.1592H22.2905L22.2373 53.8952H22.2158C22.0291 54.0837 21.7681 54.2238 21.512 54.2238C20.8567 54.2238 20.4302 53.6957 20.4302 52.8221Z" fill="white"/>
</g>
<mask id="mask4_4002_1392" style="mask-type:luminance" maskUnits="userSpaceOnUse" x="0" y="0" width="75" height="59">
<path d="M0 6.8844e-06H75V59H0V6.8844e-06Z" fill="white"/>
</mask>
<g mask="url(#mask4_4002_1392)">
<path d="M24.77 50.6227H26.7847V51H25.2125V52.1968H26.5448V52.5742H25.2125V54.1593H24.77V50.6227Z" fill="white"/>
</g>
<mask id="mask5_4002_1392" style="mask-type:luminance" maskUnits="userSpaceOnUse" x="0" y="0" width="75" height="59">
<path d="M0 6.8844e-06H75V59H0V6.8844e-06Z" fill="white"/>
</mask>
<g mask="url(#mask5_4002_1392)">
<path d="M27.2275 51.5392H27.59L27.6274 52.0135H27.6435C27.8193 51.6846 28.0857 51.4744 28.3791 51.4744C28.4908 51.4744 28.571 51.4905 28.6563 51.5285L28.571 51.9166C28.4858 51.8895 28.427 51.8735 28.3203 51.8735C28.1018 51.8735 27.8405 52.0352 27.6647 52.4774V54.1591H27.2275V51.5392Z" fill="white"/>
</g>
<mask id="mask6_4002_1392" style="mask-type:luminance" maskUnits="userSpaceOnUse" x="0" y="0" width="75" height="59">
<path d="M0 6.8844e-06H75V59H0V6.8844e-06Z" fill="white"/>
</mask>
<g mask="url(#mask6_4002_1392)">
<path d="M30.3521 53.5176V52.79C29.4883 52.8977 29.1899 53.1132 29.1899 53.4475C29.1899 53.7442 29.3925 53.8682 29.6483 53.8682C29.8987 53.8682 30.1013 53.7442 30.3521 53.5176ZM28.7637 53.4799C28.7637 52.9084 29.2484 52.6226 30.3521 52.4986C30.3521 52.1644 30.2453 51.8412 29.8191 51.8412C29.5204 51.8412 29.2484 51.9813 29.0459 52.1213L28.8754 51.8142C29.1153 51.6578 29.4778 51.4746 29.8937 51.4746C30.5279 51.4746 30.7945 51.9004 30.7945 52.5528V54.1593H30.432L30.3947 53.8465H30.3785C30.1333 54.0514 29.8455 54.2238 29.5204 54.2238C29.0888 54.2238 28.7637 53.9488 28.7637 53.4799Z" fill="white"/>
</g>
<mask id="mask7_4002_1392" style="mask-type:luminance" maskUnits="userSpaceOnUse" x="0" y="0" width="75" height="59">
<path d="M0 6.8844e-06H75V59H0V6.8844e-06Z" fill="white"/>
</mask>
<g mask="url(#mask7_4002_1392)">
<path d="M31.584 51.5392H31.9465L31.9838 51.9166H32C32.2451 51.6686 32.5115 51.4744 32.8687 51.4744C33.4123 51.4744 33.6574 51.8303 33.6574 52.4988V54.1591H33.2203V52.5582C33.2203 52.0673 33.0712 51.8574 32.7299 51.8574C32.4636 51.8574 32.2822 51.9974 32.0211 52.2615V54.1591H31.584V51.5392Z" fill="white"/>
</g>
<mask id="mask8_4002_1392" style="mask-type:luminance" maskUnits="userSpaceOnUse" x="0" y="0" width="75" height="59">
<path d="M0 6.8844e-06H75V59H0V6.8844e-06Z" fill="white"/>
</mask>
<g mask="url(#mask8_4002_1392)">
<path d="M34.2822 52.8546C34.2822 51.9759 34.8631 51.4746 35.5293 51.4746C35.8703 51.4746 36.1052 51.6146 36.2863 51.7817L36.0623 52.0728C35.9132 51.9382 35.753 51.8412 35.5455 51.8412C35.0763 51.8412 34.7353 52.2507 34.7353 52.8546C34.7353 53.4531 35.0604 53.8572 35.5346 53.8572C35.7745 53.8572 35.9823 53.7389 36.1425 53.5932L36.3342 53.8896C36.0996 54.0998 35.8065 54.2238 35.4973 54.2238C34.8099 54.2238 34.2822 53.7225 34.2822 52.8546Z" fill="white"/>
</g>
<mask id="mask9_4002_1392" style="mask-type:luminance" maskUnits="userSpaceOnUse" x="0" y="0" width="75" height="59">
<path d="M0 6.8844e-06H75V59H0V6.8844e-06Z" fill="white"/>
</mask>
<g mask="url(#mask9_4002_1392)">
<path d="M36.8784 50.3209H37.3156V51.3666L37.2997 51.9057C37.5446 51.6687 37.8059 51.4745 38.1631 51.4745C38.7067 51.4745 38.9519 51.8305 38.9519 52.4986V54.1592H38.5147V52.5581C38.5147 52.0674 38.3657 51.8572 38.0244 51.8572C37.758 51.8572 37.5766 51.9976 37.3156 52.2616V54.1592H36.8784V50.3209Z" fill="white"/>
</g>
<mask id="mask10_4002_1392" style="mask-type:luminance" maskUnits="userSpaceOnUse" x="0" y="0" width="75" height="59">
<path d="M0 6.8844e-06H75V59H0V6.8844e-06Z" fill="white"/>
</mask>
<g mask="url(#mask10_4002_1392)">
<path d="M41.3726 52.6389C41.3726 52.1108 41.1383 51.8251 40.7332 51.8251C40.3708 51.8251 40.0403 52.1213 39.9871 52.6389H41.3726ZM39.5605 52.8545C39.5605 51.9976 40.1309 51.4745 40.7227 51.4745C41.3835 51.4745 41.7566 51.9544 41.7566 52.7037C41.7566 52.7953 41.751 52.8923 41.7407 52.9571H39.9921C40.0242 53.5122 40.3602 53.8681 40.8558 53.8681C41.1007 53.8681 41.3089 53.7873 41.5008 53.6633L41.6555 53.9544C41.4314 54.1001 41.1542 54.2238 40.8026 54.2238C40.1094 54.2238 39.5605 53.7117 39.5605 52.8545Z" fill="white"/>
</g>
<mask id="mask11_4002_1392" style="mask-type:luminance" maskUnits="userSpaceOnUse" x="0" y="0" width="75" height="59">
<path d="M0 6.8844e-06H75V59H0V6.8844e-06Z" fill="white"/>
</mask>
<g mask="url(#mask11_4002_1392)">
<path d="M42.2051 52.639H43.431V52.9785H42.2051V52.639Z" fill="white"/>
</g>
<mask id="mask12_4002_1392" style="mask-type:luminance" maskUnits="userSpaceOnUse" x="0" y="0" width="75" height="59">
<path d="M0 6.8844e-06H75V59H0V6.8844e-06Z" fill="white"/>
</mask>
<g mask="url(#mask12_4002_1392)">
<path d="M43.8955 52.3909C43.8955 51.2536 44.5564 50.5581 45.4466 50.5581C45.8728 50.5581 46.2033 50.763 46.4061 50.9946L46.1662 51.2857C45.9795 51.0862 45.7502 50.9515 45.4516 50.9515C44.7907 50.9515 44.3538 51.5013 44.3538 52.3802C44.3538 53.2696 44.7748 53.8304 45.4357 53.8304C45.7717 53.8304 46.0222 53.6793 46.2459 53.4313L46.4914 53.7117C46.2141 54.0352 45.8728 54.2238 45.4198 54.2238C44.5458 54.2238 43.8955 53.5446 43.8955 52.3909Z" fill="white"/>
</g>
<mask id="mask13_4002_1392" style="mask-type:luminance" maskUnits="userSpaceOnUse" x="0" y="0" width="75" height="59">
<path d="M0 6.8844e-06H75V59H0V6.8844e-06Z" fill="white"/>
</mask>
<g mask="url(#mask13_4002_1392)">
<path d="M48.8269 52.8546C48.8269 52.2507 48.5282 51.8412 48.0805 51.8412C47.6381 51.8412 47.3344 52.2507 47.3344 52.8546C47.3344 53.4531 47.6381 53.8572 48.0805 53.8572C48.5282 53.8572 48.8269 53.4531 48.8269 52.8546ZM46.8813 52.8546C46.8813 51.9759 47.4461 51.4746 48.0805 51.4746C48.7149 51.4746 49.2799 51.9759 49.2799 52.8546C49.2799 53.7225 48.7149 54.2238 48.0805 54.2238C47.4461 54.2238 46.8813 53.7225 46.8813 52.8546Z" fill="white"/>
</g>
<mask id="mask14_4002_1392" style="mask-type:luminance" maskUnits="userSpaceOnUse" x="0" y="0" width="75" height="59">
<path d="M0 6.8844e-06H75V59H0V6.8844e-06Z" fill="white"/>
</mask>
<g mask="url(#mask14_4002_1392)">
<path d="M49.9365 51.5392H50.299L50.3363 51.9166H50.3525C50.5762 51.6686 50.8482 51.4744 51.1571 51.4744C51.5517 51.4744 51.7648 51.6632 51.8715 51.9757C52.1431 51.6796 52.4098 51.4744 52.7244 51.4744C53.2573 51.4744 53.5131 51.8303 53.5131 52.4988V54.1591H53.076V52.5582C53.076 52.0673 52.9213 51.8574 52.5962 51.8574C52.3936 51.8574 52.1861 51.9921 51.9462 52.2615V54.1591H51.509V52.5582C51.509 52.0673 51.3544 51.8574 51.024 51.8574C50.832 51.8574 50.6136 51.9921 50.3737 52.2615V54.1591H49.9365V51.5392Z" fill="white"/>
</g>
<mask id="mask15_4002_1392" style="mask-type:luminance" maskUnits="userSpaceOnUse" x="0" y="0" width="75" height="59">
<path d="M0 6.8844e-06H75V59H0V6.8844e-06Z" fill="white"/>
</mask>
<g mask="url(#mask15_4002_1392)">
<path d="M54.4044 53.3506V51.9005H54.0205V51.5662L54.4259 51.5392L54.4791 50.8059H54.8469V51.5392H55.5451V51.9005H54.8469V53.3559C54.8469 53.6794 54.948 53.8626 55.2467 53.8626C55.3373 53.8626 55.4543 53.8248 55.5395 53.7924L55.6248 54.1269C55.481 54.1754 55.3052 54.2239 55.1456 54.2239C54.5908 54.2239 54.4044 53.8683 54.4044 53.3506Z" fill="white"/>
</g>
<mask id="mask16_4002_1392" style="mask-type:luminance" maskUnits="userSpaceOnUse" x="0" y="0" width="75" height="59">
<path d="M0 6.8844e-06H75V59H0V6.8844e-06Z" fill="white"/>
</mask>
<g mask="url(#mask16_4002_1392)">
<path d="M57.651 52.6389C57.651 52.1108 57.4167 51.8251 57.0116 51.8251C56.6491 51.8251 56.3184 52.1213 56.2654 52.6389H57.651ZM55.8389 52.8545C55.8389 51.9976 56.4092 51.4745 57.0007 51.4745C57.6618 51.4745 58.0349 51.9544 58.0349 52.7037C58.0349 52.7953 58.0293 52.8923 58.019 52.9571H56.2704C56.3025 53.5122 56.6385 53.8681 57.1342 53.8681C57.379 53.8681 57.5872 53.7873 57.7791 53.6633L57.9338 53.9544C57.7098 54.1001 57.4325 54.2238 57.0809 54.2238C56.3877 54.2238 55.8389 53.7117 55.8389 52.8545Z" fill="white"/>
</g>
<mask id="mask17_4002_1392" style="mask-type:luminance" maskUnits="userSpaceOnUse" x="0" y="0" width="75" height="59">
<path d="M0 6.8844e-06H75V59H0V6.8844e-06Z" fill="white"/>
</mask>
<g mask="url(#mask17_4002_1392)">
<path d="M57.9901 50.5907L57.6058 50.2523C57.5115 50.3371 57.4195 50.3989 57.3313 50.4364C57.2425 50.4753 57.1431 50.4941 57.0305 50.4941H57.0102C56.8994 50.4941 56.7989 50.4753 56.7107 50.4364C56.6219 50.3989 56.5305 50.3371 56.4364 50.2523L56.0527 50.5907C56.1571 50.7213 56.2838 50.8232 56.4326 50.8997C56.4637 50.9145 56.4958 50.9294 56.5293 50.9422C56.661 50.9924 56.8027 51.0216 56.9538 51.0284C56.97 51.0293 56.9861 51.0293 57.0023 51.0293H57.0387C57.0558 51.0293 57.0717 51.0293 57.0873 51.0284C57.239 51.0216 57.3809 50.9924 57.5129 50.9422C57.5459 50.9294 57.5785 50.9145 57.6097 50.8997C57.7572 50.8232 57.8837 50.7213 57.9901 50.5907Z" fill="#E84038"/>
</g>
<mask id="mask18_4002_1392" style="mask-type:luminance" maskUnits="userSpaceOnUse" x="0" y="0" width="75" height="59">
<path d="M0 6.8844e-06H75V59H0V6.8844e-06Z" fill="white"/>
</mask>
<g mask="url(#mask18_4002_1392)">
<path d="M10.1189 54.4393H10.1178C10.1163 54.4393 10.1148 54.4399 10.1134 54.4399C10.1119 54.4399 10.1104 54.4393 10.1089 54.4393C9.61564 54.4384 9.20318 54.2662 8.85511 53.9225C8.50645 53.5696 8.33594 53.1509 8.33594 52.6499V52.6386V49.6711C8.33594 49.4535 8.51027 49.2771 8.72546 49.2771C8.94066 49.2771 9.11499 49.4535 9.11499 49.6711V50.8584C9.12057 50.8581 9.53303 50.8587 9.53303 50.8587C9.74823 50.8587 9.92256 51.035 9.92256 51.2527C9.92256 51.47 9.74823 51.6467 9.53303 51.6467H9.13175C9.12587 51.6467 9.12057 51.6475 9.11499 51.6472V52.5803C9.11381 52.6035 9.11499 52.6264 9.11499 52.6499C9.11499 52.9538 9.2123 53.2 9.39898 53.3971C9.59388 53.5859 9.82907 53.6855 10.1134 53.6855C10.1151 53.6855 10.1189 53.6858 10.1189 53.6858C10.3224 53.6891 10.4864 53.8562 10.4864 54.0626C10.4864 54.2689 10.3224 54.4363 10.1189 54.4393Z" fill="white"/>
</g>
<mask id="mask19_4002_1392" style="mask-type:luminance" maskUnits="userSpaceOnUse" x="0" y="0" width="75" height="59">
<path d="M0 6.8844e-06H75V59H0V6.8844e-06Z" fill="white"/>
</mask>
<g mask="url(#mask19_4002_1392)">
<path d="M4.15405 53.7571C4.15405 53.9747 3.97972 54.1511 3.76453 54.1511C3.54933 54.1511 3.375 53.9747 3.375 53.7571V51.0049C3.375 50.7872 3.54933 50.6109 3.76453 50.6109C3.97972 50.6109 4.15405 50.7872 4.15405 51.0049V53.7571Z" fill="white"/>
</g>
<mask id="mask20_4002_1392" style="mask-type:luminance" maskUnits="userSpaceOnUse" x="0" y="0" width="75" height="59">
<path d="M0 6.8844e-06H75V59H0V6.8844e-06Z" fill="white"/>
</mask>
<g mask="url(#mask20_4002_1392)">
<path d="M6.24588 54.1716C5.84812 54.1716 5.49917 54.0402 5.20695 53.7693C4.92296 53.4984 4.77686 53.0798 4.77686 52.5217V50.9844C4.77686 50.7668 4.95119 50.5904 5.16638 50.5904C5.38158 50.5904 5.55591 50.7668 5.55591 50.9844V52.5217C5.55591 53.1128 5.82372 53.4164 6.24588 53.4164C6.66775 53.4164 6.94379 53.1045 6.94379 52.5217V51.9582C6.94379 51.7406 7.11813 51.5642 7.33332 51.5642C7.54851 51.5642 7.72285 51.7406 7.72285 51.9582V52.5217C7.72285 53.0715 7.57674 53.4901 7.28481 53.761C6.99259 54.0322 6.64334 54.1716 6.24588 54.1716Z" fill="white"/>
</g>
<mask id="mask21_4002_1392" style="mask-type:luminance" maskUnits="userSpaceOnUse" x="0" y="0" width="75" height="59">
<path d="M0 6.8844e-06H75V59H0V6.8844e-06Z" fill="white"/>
</mask>
<g mask="url(#mask21_4002_1392)">
<path d="M10.4861 54.0626C10.4861 54.2728 10.3176 54.4435 10.1095 54.4435C9.90166 54.4435 9.73291 54.2728 9.73291 54.0626C9.73291 53.8524 9.90166 53.6817 10.1095 53.6817C10.3176 53.6817 10.4861 53.8524 10.4861 54.0626Z" fill="#50B3B4"/>
</g>
<mask id="mask22_4002_1392" style="mask-type:luminance" maskUnits="userSpaceOnUse" x="0" y="0" width="75" height="59">
<path d="M0 6.8844e-06H75V59H0V6.8844e-06Z" fill="white"/>
</mask>
<g mask="url(#mask22_4002_1392)">
<path d="M4.16382 49.6711C4.16382 49.8888 3.98949 50.0651 3.77429 50.0651C3.5591 50.0651 3.38477 49.8888 3.38477 49.6711C3.38477 49.4535 3.5591 49.2772 3.77429 49.2772C3.98949 49.2772 4.16382 49.4535 4.16382 49.6711Z" fill="#F4BC45"/>
</g>
<mask id="mask23_4002_1392" style="mask-type:luminance" maskUnits="userSpaceOnUse" x="0" y="0" width="75" height="59">
<path d="M0 6.8844e-06H75V59H0V6.8844e-06Z" fill="white"/>
</mask>
<g mask="url(#mask23_4002_1392)">
<path d="M7.7229 50.9843C7.7229 51.202 7.54857 51.3783 7.33337 51.3783C7.11818 51.3783 6.94385 51.202 6.94385 50.9843C6.94385 50.7667 7.11818 50.5903 7.33337 50.5903C7.54857 50.5903 7.7229 50.7667 7.7229 50.9843Z" fill="#D90B3D"/>
</g>
<mask id="mask24_4002_1392" style="mask-type:luminance" maskUnits="userSpaceOnUse" x="0" y="0" width="75" height="59">
<path d="M0 6.8844e-06H75V59H0V6.8844e-06Z" fill="white"/>
</mask>
<g mask="url(#mask24_4002_1392)">
<path d="M3.20752 30.4799H3.92924L4.83882 33.035C4.95406 33.3636 5.06254 33.7067 5.17808 34.0353H5.20689C5.32242 33.7067 5.4162 33.3636 5.53174 33.035L6.42662 30.4799H7.15569V35.2689H6.59272V32.6336C6.59272 32.2102 6.64328 31.6408 6.67209 31.2173H6.64328L6.26787 32.305L5.37299 34.7869H4.97582L4.08094 32.305L3.70552 31.2173H3.67671C3.70552 31.6408 3.74874 32.2102 3.74874 32.6336V35.2689H3.20752V30.4799Z" fill="white"/>
</g>
<mask id="mask25_4002_1392" style="mask-type:luminance" maskUnits="userSpaceOnUse" x="0" y="0" width="75" height="59">
<path d="M0 6.8844e-06H75V59H0V6.8844e-06Z" fill="white"/>
</mask>
<g mask="url(#mask25_4002_1392)">
<path d="M9.27122 30.7865L10.289 29.5674L10.7076 29.9689L9.57431 31.086L9.27122 30.7865ZM10.5562 33.2102C10.5562 32.4948 10.2384 32.1079 9.68985 32.1079C9.19919 32.1079 8.75146 32.5093 8.67943 33.2102H10.5562ZM8.10205 33.5022C8.10205 32.3413 8.87434 31.6334 9.67544 31.6334C10.5703 31.6334 11.0757 32.2831 11.0757 33.2979C11.0757 33.4219 11.0686 33.5533 11.0539 33.641H8.68678C8.73 34.3927 9.18478 34.8747 9.85594 34.8747C10.1879 34.8747 10.4695 34.7653 10.7291 34.5973L10.9384 34.9915C10.6356 35.1887 10.2602 35.3564 9.78363 35.3564C8.84553 35.3564 8.10205 34.663 8.10205 33.5022Z" fill="white"/>
</g>
<mask id="mask26_4002_1392" style="mask-type:luminance" maskUnits="userSpaceOnUse" x="0" y="0" width="75" height="59">
<path d="M0 6.8844e-06H75V59H0V6.8844e-06Z" fill="white"/>
</mask>
<g mask="url(#mask26_4002_1392)">
<path d="M11.9353 34.1739V32.2103H11.4155V31.7577L11.9641 31.7209L12.0364 30.7283H12.5344V31.7209H13.4799V32.2103H12.5344V34.1811C12.5344 34.6193 12.6714 34.8676 13.0756 34.8676C13.1982 34.8676 13.357 34.8165 13.4725 34.7725L13.5881 35.225C13.3931 35.2907 13.155 35.3564 12.9386 35.3564C12.1878 35.3564 11.9353 34.8748 11.9353 34.1739Z" fill="white"/>
</g>
<mask id="mask27_4002_1392" style="mask-type:luminance" maskUnits="userSpaceOnUse" x="0" y="0" width="75" height="59">
<path d="M0 6.8844e-06H75V59H0V6.8844e-06Z" fill="white"/>
</mask>
<g mask="url(#mask27_4002_1392)">
<path d="M14.2383 31.721H14.8301V35.2689H14.2383V31.721ZM14.1445 30.5967C14.1445 30.3633 14.3106 30.2025 14.5417 30.2025C14.7725 30.2025 14.9386 30.3633 14.9386 30.5967C14.9386 30.8376 14.7725 30.991 14.5417 30.991C14.3106 30.991 14.1445 30.8376 14.1445 30.5967Z" fill="white"/>
</g>
<mask id="mask28_4002_1392" style="mask-type:luminance" maskUnits="userSpaceOnUse" x="0" y="0" width="75" height="59">
<path d="M0 6.8844e-06H75V59H0V6.8844e-06Z" fill="white"/>
</mask>
<g mask="url(#mask28_4002_1392)">
<path d="M18.1721 33.2103C18.1721 32.4949 17.8546 32.1078 17.3061 32.1078C16.8154 32.1078 16.3677 32.5095 16.2956 33.2103H18.1721ZM15.7183 33.5023C15.7183 32.3415 16.4906 31.6335 17.2917 31.6335C18.1868 31.6335 18.6919 32.2832 18.6919 33.2977C18.6919 33.422 18.6845 33.5534 18.6701 33.6408H16.303C16.3462 34.3928 16.801 34.8748 17.4722 34.8748C17.8041 34.8748 18.0857 34.7651 18.3456 34.5974L18.5549 34.9914C18.2518 35.1885 17.8764 35.3565 17.3998 35.3565C16.4617 35.3565 15.7183 34.6631 15.7183 33.5023Z" fill="white"/>
</g>
<mask id="mask29_4002_1392" style="mask-type:luminance" maskUnits="userSpaceOnUse" x="0" y="0" width="75" height="59">
<path d="M0 6.8844e-06H75V59H0V6.8844e-06Z" fill="white"/>
</mask>
<g mask="url(#mask29_4002_1392)">
<path d="M19.5229 31.721H20.0136L20.0642 32.3635H20.0859C20.324 31.9181 20.6848 31.6336 21.0819 31.6336C21.2333 31.6336 21.3418 31.6553 21.4571 31.7064L21.3418 32.2321C21.2263 32.1955 21.1466 32.1735 21.0023 32.1735C20.7065 32.1735 20.3529 32.3927 20.1147 32.9912V35.2689H19.5229V31.721Z" fill="white"/>
</g>
<mask id="mask30_4002_1392" style="mask-type:luminance" maskUnits="userSpaceOnUse" x="0" y="0" width="75" height="59">
<path d="M0 6.8844e-06H75V59H0V6.8844e-06Z" fill="white"/>
</mask>
<g mask="url(#mask30_4002_1392)">
<path d="M21.5732 34.8674L21.8693 34.4657C22.1724 34.714 22.4828 34.8891 22.9015 34.8891C23.3633 34.8891 23.5941 34.6412 23.5941 34.3346C23.5941 33.9695 23.1754 33.8089 22.793 33.6629C22.295 33.4803 21.7682 33.2395 21.7682 32.6409C21.7682 32.0715 22.2156 31.6336 22.9805 31.6336C23.4139 31.6336 23.7963 31.8158 24.0706 32.035L23.7819 32.4144C23.5435 32.2321 23.291 32.1007 22.9805 32.1007C22.5404 32.1007 22.3385 32.3415 22.3385 32.6118C22.3385 32.9475 22.6992 33.0715 23.0964 33.2249C23.6011 33.4146 24.1641 33.6263 24.1641 34.298C24.1641 34.8746 23.7099 35.3566 22.8794 35.3566C22.3817 35.3566 21.9051 35.1449 21.5732 34.8674Z" fill="white"/>
</g>
<mask id="mask31_4002_1392" style="mask-type:luminance" maskUnits="userSpaceOnUse" x="0" y="0" width="75" height="59">
<path d="M0 6.8844e-06H75V59H0V6.8844e-06Z" fill="white"/>
</mask>
<g mask="url(#mask31_4002_1392)">
<path d="M28.5826 34.3636V32.5094C28.2865 32.2391 28.0196 32.1371 27.7309 32.1371C27.1679 32.1371 26.7205 32.6845 26.7205 33.4951C26.7205 34.3416 27.0738 34.8527 27.6874 34.8527C28.0125 34.8527 28.2939 34.6922 28.5826 34.3636ZM26.1069 33.5022C26.1069 32.3488 26.8287 31.6334 27.6298 31.6334C28.034 31.6334 28.3009 31.7866 28.6114 32.0423L28.5826 31.4363V30.0712H29.1817V35.2687H28.6907L28.6402 34.8527H28.6187C28.3441 35.1227 27.969 35.3564 27.5577 35.3564C26.6773 35.3564 26.1069 34.6848 26.1069 33.5022Z" fill="white"/>
</g>
<mask id="mask32_4002_1392" style="mask-type:luminance" maskUnits="userSpaceOnUse" x="0" y="0" width="75" height="59">
<path d="M0 6.8844e-06H75V59H0V6.8844e-06Z" fill="white"/>
</mask>
<g mask="url(#mask32_4002_1392)">
<path d="M30.2798 33.9695V31.721H30.8786V33.8892C30.8786 34.5534 31.0735 34.838 31.5354 34.838C31.8964 34.838 32.1489 34.6557 32.4808 34.2395V31.721H33.0729V35.2689H32.582L32.5314 34.714H32.5099C32.1851 35.1012 31.8388 35.3566 31.3549 35.3566C30.6117 35.3566 30.2798 34.8746 30.2798 33.9695Z" fill="white"/>
</g>
<mask id="mask33_4002_1392" style="mask-type:luminance" maskUnits="userSpaceOnUse" x="0" y="0" width="75" height="59">
<path d="M0 6.8844e-06H75V59H0V6.8844e-06Z" fill="white"/>
</mask>
<g mask="url(#mask33_4002_1392)">
<path d="M35.687 30.4799H36.4087L37.318 33.035C37.4336 33.3636 37.542 33.7067 37.6573 34.0353H37.6864C37.8016 33.7067 37.8957 33.3636 38.0109 33.035L38.9058 30.4799H39.6352V35.2689H39.0722V32.6336C39.0722 32.2102 39.1228 31.6408 39.1513 31.2173H39.1228L38.7471 32.305L37.8522 34.7869H37.4553L36.5604 32.305L36.1847 31.2173H36.1562C36.1847 31.6408 36.2282 32.2102 36.2282 32.6336V35.2689H35.687V30.4799Z" fill="white"/>
</g>
<mask id="mask34_4002_1392" style="mask-type:luminance" maskUnits="userSpaceOnUse" x="0" y="0" width="75" height="59">
<path d="M0 6.8844e-06H75V59H0V6.8844e-06Z" fill="white"/>
</mask>
<g mask="url(#mask34_4002_1392)">
<path d="M40.791 33.9695V31.721H41.3899V33.8892C41.3899 34.5534 41.5848 34.838 42.0466 34.838C42.4076 34.838 42.6602 34.6557 42.9921 34.2395V31.721H43.5841V35.2689H43.0932L43.0426 34.714H43.0212C42.6963 35.1012 42.35 35.3566 41.8664 35.3566C41.1229 35.3566 40.791 34.8746 40.791 33.9695Z" fill="white"/>
</g>
<mask id="mask35_4002_1392" style="mask-type:luminance" maskUnits="userSpaceOnUse" x="0" y="0" width="75" height="59">
<path d="M0 6.8844e-06H75V59H0V6.8844e-06Z" fill="white"/>
</mask>
<g mask="url(#mask35_4002_1392)">
<path d="M44.7329 34.5534V30.0713H45.3247V34.5971C45.3247 34.7871 45.4041 34.8599 45.4905 34.8599C45.5267 34.8599 45.5558 34.8599 45.6207 34.8454L45.6998 35.2979C45.6207 35.3345 45.5196 35.3565 45.3609 35.3565C44.9131 35.3565 44.7329 35.0717 44.7329 34.5534Z" fill="white"/>
</g>
<mask id="mask36_4002_1392" style="mask-type:luminance" maskUnits="userSpaceOnUse" x="0" y="0" width="75" height="59">
<path d="M0 6.8844e-06H75V59H0V6.8844e-06Z" fill="white"/>
</mask>
<g mask="url(#mask36_4002_1392)">
<path d="M46.6384 34.1739V32.2103H46.1187V31.7577L46.6675 31.7209L46.7395 30.7283H47.2375V31.7209H48.1833V32.2103H47.2375V34.1811C47.2375 34.6193 47.3748 34.8676 47.7791 34.8676C47.9017 34.8676 48.0604 34.8165 48.1756 34.7725L48.2915 35.225C48.0966 35.2907 47.8581 35.3564 47.6418 35.3564C46.8909 35.3564 46.6384 34.8748 46.6384 34.1739Z" fill="white"/>
</g>
<mask id="mask37_4002_1392" style="mask-type:luminance" maskUnits="userSpaceOnUse" x="0" y="0" width="75" height="59">
<path d="M0 6.8844e-06H75V59H0V6.8844e-06Z" fill="white"/>
</mask>
<g mask="url(#mask37_4002_1392)">
<path d="M48.9417 31.721H49.5335V35.2689H48.9417V31.721ZM48.8477 30.5967C48.8477 30.3633 49.0138 30.2025 49.2445 30.2025C49.4756 30.2025 49.6417 30.3633 49.6417 30.5967C49.6417 30.8376 49.4756 30.991 49.2445 30.991C49.0138 30.991 48.8477 30.8376 48.8477 30.5967Z" fill="white"/>
</g>
<mask id="mask38_4002_1392" style="mask-type:luminance" maskUnits="userSpaceOnUse" x="0" y="0" width="75" height="59">
<path d="M0 6.8844e-06H75V59H0V6.8844e-06Z" fill="white"/>
</mask>
<g mask="url(#mask38_4002_1392)">
<path d="M50.6816 31.721H51.1723L51.2229 32.2321H51.2446C51.5474 31.8961 51.9158 31.6336 52.3344 31.6336C52.8683 31.6336 53.1573 31.889 53.3016 32.3124C53.6697 31.911 54.0307 31.6336 54.4564 31.6336C55.1781 31.6336 55.5247 32.1153 55.5247 33.0204V35.2689H54.9326V33.1006C54.9326 32.4364 54.7233 32.1518 54.2832 32.1518C54.0086 32.1518 53.7273 32.3344 53.4027 32.6992V35.2689H52.8107V33.1006C52.8107 32.4364 52.6013 32.1518 52.1539 32.1518C51.894 32.1518 51.598 32.3344 51.2734 32.6992V35.2689H50.6816V31.721Z" fill="white"/>
</g>
<mask id="mask39_4002_1392" style="mask-type:luminance" maskUnits="userSpaceOnUse" x="0" y="0" width="75" height="59">
<path d="M0 6.8844e-06H75V59H0V6.8844e-06Z" fill="white"/>
</mask>
<g mask="url(#mask39_4002_1392)">
<path d="M57.5396 30.7865L58.5573 29.5674L58.976 29.9689L57.8427 31.086L57.5396 30.7865ZM58.8243 33.2102C58.8243 32.4948 58.5068 32.1079 57.9582 32.1079C57.4676 32.1079 57.0198 32.5093 56.9478 33.2102H58.8243ZM56.3701 33.5022C56.3701 32.3413 57.1427 31.6334 57.9438 31.6334C58.839 31.6334 59.344 32.2831 59.344 33.2979C59.344 33.4219 59.3367 33.5533 59.3223 33.641H56.9551C56.9984 34.3927 57.4531 34.8747 58.1243 34.8747C58.4562 34.8747 58.7378 34.7653 58.9977 34.5973L59.207 34.9915C58.9039 35.1887 58.5285 35.3564 58.052 35.3564C57.1139 35.3564 56.3701 34.663 56.3701 33.5022Z" fill="white"/>
</g>
<mask id="mask40_4002_1392" style="mask-type:luminance" maskUnits="userSpaceOnUse" x="0" y="0" width="75" height="59">
<path d="M0 6.8844e-06H75V59H0V6.8844e-06Z" fill="white"/>
</mask>
<g mask="url(#mask40_4002_1392)">
<path d="M62.398 34.3636V32.5094C62.1019 32.2391 61.835 32.1371 61.5463 32.1371C60.9833 32.1371 60.5359 32.6845 60.5359 33.4951C60.5359 34.3416 60.8893 34.8527 61.5028 34.8527C61.828 34.8527 62.1093 34.6922 62.398 34.3636ZM59.9224 33.5022C59.9224 32.3488 60.6441 31.6334 61.4452 31.6334C61.8494 31.6334 62.1163 31.7866 62.4268 32.0423L62.398 31.4363V30.0712H62.9971V35.2687H62.5062L62.4556 34.8527H62.4341C62.1596 35.1227 61.7844 35.3564 61.3732 35.3564C60.4927 35.3564 59.9224 34.6848 59.9224 33.5022Z" fill="white"/>
</g>
<mask id="mask41_4002_1392" style="mask-type:luminance" maskUnits="userSpaceOnUse" x="0" y="0" width="75" height="59">
<path d="M0 6.8844e-06H75V59H0V6.8844e-06Z" fill="white"/>
</mask>
<g mask="url(#mask41_4002_1392)">
<path d="M64.1455 31.721H64.7373V35.2689H64.1455V31.721ZM64.0518 30.5967C64.0518 30.3633 64.2179 30.2025 64.4486 30.2025C64.6797 30.2025 64.8455 30.3633 64.8455 30.5967C64.8455 30.8376 64.6797 30.991 64.4486 30.991C64.2179 30.991 64.0518 30.8376 64.0518 30.5967Z" fill="white"/>
</g>
<mask id="mask42_4002_1392" style="mask-type:luminance" maskUnits="userSpaceOnUse" x="0" y="0" width="75" height="59">
<path d="M0 6.8844e-06H75V59H0V6.8844e-06Z" fill="white"/>
</mask>
<g mask="url(#mask42_4002_1392)">
<path d="M67.8197 34.4003V33.4149C66.6503 33.5606 66.2463 33.8526 66.2463 34.3054C66.2463 34.7068 66.5206 34.8748 66.8672 34.8748C67.2062 34.8748 67.4808 34.7068 67.8197 34.4003ZM65.6689 34.3491C65.6689 33.5754 66.3257 33.1883 67.8197 33.0203C67.8197 32.5677 67.6754 32.1298 67.098 32.1298C66.6938 32.1298 66.3257 32.3195 66.0514 32.5095L65.8203 32.0935C66.1455 31.8815 66.6361 31.6335 67.1991 31.6335C68.0581 31.6335 68.4188 32.21 68.4188 33.0934V35.2688H67.9279L67.8773 34.8457H67.8559C67.5237 35.1228 67.1341 35.3565 66.6938 35.3565C66.1093 35.3565 65.6689 34.9842 65.6689 34.3491Z" fill="white"/>
</g>
<mask id="mask43_4002_1392" style="mask-type:luminance" maskUnits="userSpaceOnUse" x="0" y="0" width="75" height="59">
<path d="M0 6.8844e-06H75V59H0V6.8844e-06Z" fill="white"/>
</mask>
<g mask="url(#mask43_4002_1392)">
<path d="M5.34381 40.8953C5.34381 40.1799 5.02601 39.7931 4.47774 39.7931C3.98679 39.7931 3.53935 40.1948 3.46703 40.8953H5.34381ZM2.88965 41.1873C2.88965 40.0265 3.66194 39.3185 4.46304 39.3185C5.35821 39.3185 5.86357 39.9685 5.86357 40.983C5.86357 41.1073 5.85622 41.2384 5.84181 41.3261H3.47438C3.51759 42.0781 3.97238 42.5598 4.64354 42.5598C4.97574 42.5598 5.25708 42.4504 5.51696 42.2824L5.72628 42.6764C5.42318 42.8738 5.04777 43.0418 4.57152 43.0418C3.63313 43.0418 2.88965 42.3484 2.88965 41.1873Z" fill="white"/>
</g>
<mask id="mask44_4002_1392" style="mask-type:luminance" maskUnits="userSpaceOnUse" x="0" y="0" width="75" height="59">
<path d="M0 6.8844e-06H75V59H0V6.8844e-06Z" fill="white"/>
</mask>
<g mask="url(#mask44_4002_1392)">
<path d="M6.72337 41.859V39.8954H6.20361V39.4428L6.75218 39.4063L6.8245 38.4132H7.32251V39.4063H8.26795V39.8954H7.32251V41.8662C7.32251 42.3042 7.4595 42.5527 7.86373 42.5527C7.98632 42.5527 8.14507 42.5016 8.2606 42.4576L8.37614 42.9101C8.18123 42.9762 7.9431 43.0419 7.72673 43.0419C6.9759 43.0419 6.72337 42.5596 6.72337 41.859Z" fill="white"/>
</g>
<mask id="mask45_4002_1392" style="mask-type:luminance" maskUnits="userSpaceOnUse" x="0" y="0" width="75" height="59">
<path d="M0 6.8844e-06H75V59H0V6.8844e-06Z" fill="white"/>
</mask>
<g mask="url(#mask45_4002_1392)">
<path d="M12.6573 42.0486V40.1947C12.3612 39.9241 12.0943 39.8221 11.8056 39.8221C11.2426 39.8221 10.7952 40.3698 10.7952 41.1801C10.7952 42.0269 11.1488 42.5381 11.7624 42.5381C12.0869 42.5381 12.3686 42.3772 12.6573 42.0486ZM10.1816 41.1875C10.1816 40.0341 10.9034 39.3184 11.7045 39.3184C12.1087 39.3184 12.3756 39.4719 12.6861 39.7273L12.6573 39.1213V37.7562H13.2564V42.954H12.7654L12.7149 42.5381H12.6934C12.4188 42.808 12.0437 43.0417 11.6324 43.0417C10.7517 43.0417 10.1816 42.3701 10.1816 41.1875Z" fill="white"/>
</g>
<mask id="mask46_4002_1392" style="mask-type:luminance" maskUnits="userSpaceOnUse" x="0" y="0" width="75" height="59">
<path d="M0 6.8844e-06H75V59H0V6.8844e-06Z" fill="white"/>
</mask>
<g mask="url(#mask46_4002_1392)">
<path d="M16.5987 40.8953C16.5987 40.1799 16.2809 39.7931 15.7326 39.7931C15.2417 39.7931 14.7942 40.1948 14.7219 40.8953H16.5987ZM14.1445 41.1873C14.1445 40.0265 14.9168 39.3185 15.7179 39.3185C16.6131 39.3185 17.1184 39.9685 17.1184 40.983C17.1184 41.1073 17.1111 41.2384 17.0964 41.3261H14.7293C14.7725 42.0781 15.2273 42.5598 15.8984 42.5598C16.2306 42.5598 16.512 42.4504 16.7718 42.2824L16.9812 42.6764C16.6781 42.8738 16.3027 43.0418 15.8264 43.0418C14.888 43.0418 14.1445 42.3484 14.1445 41.1873Z" fill="white"/>
</g>
<mask id="mask47_4002_1392" style="mask-type:luminance" maskUnits="userSpaceOnUse" x="0" y="0" width="75" height="59">
<path d="M0 6.8844e-06H75V59H0V6.8844e-06Z" fill="white"/>
</mask>
<g mask="url(#mask47_4002_1392)">
<path d="M19.3574 42.2386V37.7564H19.9492V42.2823C19.9492 42.472 20.0286 42.5451 20.115 42.5451C20.1512 42.5451 20.1803 42.5451 20.2452 42.5306L20.3243 42.9831C20.2452 43.0197 20.1441 43.0417 19.9854 43.0417C19.5376 43.0417 19.3574 42.7568 19.3574 42.2386Z" fill="white"/>
</g>
<mask id="mask48_4002_1392" style="mask-type:luminance" maskUnits="userSpaceOnUse" x="0" y="0" width="75" height="59">
<path d="M0 6.8844e-06H75V59H0V6.8844e-06Z" fill="white"/>
</mask>
<g mask="url(#mask48_4002_1392)">
<path d="M21.0244 39.5303C21.3854 39.2894 21.5656 39.034 21.5656 38.6177C21.5442 38.6252 21.5298 38.6252 21.508 38.6252C21.3058 38.6252 21.1255 38.4937 21.1255 38.26C21.1255 38.0043 21.2843 37.8512 21.508 37.8512C21.7896 37.8512 21.9625 38.092 21.9625 38.5154C21.9625 39.0997 21.6885 39.5157 21.1902 39.8077L21.0244 39.5303Z" fill="white"/>
</g>
<mask id="mask49_4002_1392" style="mask-type:luminance" maskUnits="userSpaceOnUse" x="0" y="0" width="75" height="59">
<path d="M0 6.8844e-06H75V59H0V6.8844e-06Z" fill="white"/>
</mask>
<g mask="url(#mask49_4002_1392)">
<path d="M22.981 38.1653H23.5798V42.954H22.981V38.1653Z" fill="white"/>
</g>
<mask id="mask50_4002_1392" style="mask-type:luminance" maskUnits="userSpaceOnUse" x="0" y="0" width="75" height="59">
<path d="M0 6.8844e-06H75V59H0V6.8844e-06Z" fill="white"/>
</mask>
<g mask="url(#mask50_4002_1392)">
<path d="M24.7856 39.4063H25.2763L25.3269 39.9174H25.3483C25.6805 39.5814 26.0412 39.3186 26.5248 39.3186C27.2613 39.3186 27.5932 39.8003 27.5932 40.7054V42.9542H27.0014V40.7859C27.0014 40.1217 26.7994 39.8368 26.3373 39.8368C25.9766 39.8368 25.7311 40.0265 25.3774 40.3842V42.9542H24.7856V39.4063Z" fill="white"/>
</g>
<mask id="mask51_4002_1392" style="mask-type:luminance" maskUnits="userSpaceOnUse" x="0" y="0" width="75" height="59">
<path d="M0 6.8844e-06H75V59H0V6.8844e-06Z" fill="white"/>
</mask>
<g mask="url(#mask51_4002_1392)">
<path d="M28.7998 41.859V39.8954H28.2798V39.4428L28.8286 39.4063L28.9007 38.4132H29.3987V39.4063H30.3444V39.8954H29.3987V41.8662C29.3987 42.3042 29.536 42.5527 29.9402 42.5527C30.0628 42.5527 30.2215 42.5016 30.3371 42.4576L30.4526 42.9101C30.2577 42.9762 30.0193 43.0419 29.8029 43.0419C29.0521 43.0419 28.7998 42.5596 28.7998 41.859Z" fill="white"/>
</g>
<mask id="mask52_4002_1392" style="mask-type:luminance" maskUnits="userSpaceOnUse" x="0" y="0" width="75" height="59">
<path d="M0 6.8844e-06H75V59H0V6.8844e-06Z" fill="white"/>
</mask>
<g mask="url(#mask52_4002_1392)">
<path d="M33.1959 40.8953C33.1959 40.1799 32.8784 39.7931 32.3298 39.7931C31.8391 39.7931 31.3914 40.1948 31.3194 40.8953H33.1959ZM30.7417 41.1873C30.7417 40.0265 31.5143 39.3185 32.3154 39.3185C33.2106 39.3185 33.7156 39.9685 33.7156 40.983C33.7156 41.1073 33.7083 41.2384 33.6939 41.3261H31.3267C31.3699 42.0781 31.8247 42.5598 32.4959 42.5598C32.8278 42.5598 33.1094 42.4504 33.3693 42.2824L33.5786 42.6764C33.2755 42.8738 32.9001 43.0418 32.4236 43.0418C31.4855 43.0418 30.7417 42.3484 30.7417 41.1873Z" fill="white"/>
</g>
<mask id="mask53_4002_1392" style="mask-type:luminance" maskUnits="userSpaceOnUse" x="0" y="0" width="75" height="59">
<path d="M0 6.8844e-06H75V59H0V6.8844e-06Z" fill="white"/>
</mask>
<g mask="url(#mask53_4002_1392)">
<path d="M34.5469 39.4063H35.0375L35.0881 40.0485H35.1098C35.348 39.6031 35.7087 39.3186 36.1059 39.3186C36.2573 39.3186 36.3657 39.3406 36.481 39.3917L36.3657 39.9174C36.2502 39.8808 36.1705 39.8585 36.0262 39.8585C35.7304 39.8585 35.3768 40.0777 35.1387 40.6762V42.9542H34.5469V39.4063Z" fill="white"/>
</g>
<mask id="mask54_4002_1392" style="mask-type:luminance" maskUnits="userSpaceOnUse" x="0" y="0" width="75" height="59">
<path d="M0 6.8844e-06H75V59H0V6.8844e-06Z" fill="white"/>
</mask>
<g mask="url(#mask54_4002_1392)">
<path d="M37.0156 39.4063H37.5063L37.5568 39.9174H37.5786C37.9105 39.5814 38.2712 39.3186 38.7548 39.3186C39.4912 39.3186 39.8231 39.8003 39.8231 40.7054V42.9542H39.2314V40.7859C39.2314 40.1217 39.0294 39.8368 38.5673 39.8368C38.2065 39.8368 37.9611 40.0265 37.6074 40.3842V42.9542H37.0156V39.4063Z" fill="white"/>
</g>
<mask id="mask55_4002_1392" style="mask-type:luminance" maskUnits="userSpaceOnUse" x="0" y="0" width="75" height="59">
<path d="M0 6.8844e-06H75V59H0V6.8844e-06Z" fill="white"/>
</mask>
<g mask="url(#mask55_4002_1392)">
<path d="M43.1221 40.8953C43.1221 40.1799 42.8046 39.7931 42.2561 39.7931C41.7654 39.7931 41.3177 40.1948 41.2456 40.8953H43.1221ZM40.668 41.1873C40.668 40.0265 41.4406 39.3185 42.2417 39.3185C43.1368 39.3185 43.6419 39.9685 43.6419 40.983C43.6419 41.1073 43.6345 41.2384 43.6201 41.3261H41.253C41.2962 42.0781 41.751 42.5598 42.4222 42.5598C42.7541 42.5598 43.0357 42.4504 43.2956 42.2824L43.5049 42.6764C43.2018 42.8738 42.8264 43.0418 42.3498 43.0418C41.4117 43.0418 40.668 42.3484 40.668 41.1873Z" fill="white"/>
</g>
<mask id="mask56_4002_1392" style="mask-type:luminance" maskUnits="userSpaceOnUse" x="0" y="0" width="75" height="59">
<path d="M0 6.8844e-06H75V59H0V6.8844e-06Z" fill="white"/>
</mask>
<g mask="url(#mask56_4002_1392)">
<path d="M44.502 41.859V39.8954H43.9819V39.4428L44.5308 39.4063L44.6028 38.4132H45.1008V39.4063H46.0466V39.8954H45.1008V41.8662C45.1008 42.3042 45.2381 42.5527 45.6423 42.5527C45.7649 42.5527 45.9237 42.5016 46.0392 42.4576L46.1548 42.9101C45.9598 42.9762 45.7214 43.0419 45.5051 43.0419C44.7542 43.0419 44.502 42.5596 44.502 41.859Z" fill="white"/>
</g>
<mask id="mask57_4002_1392" style="mask-type:luminance" maskUnits="userSpaceOnUse" x="0" y="0" width="75" height="59">
<path d="M0 6.8844e-06H75V59H0V6.8844e-06Z" fill="white"/>
</mask>
<g mask="url(#mask57_4002_1392)">
<path d="M59.5589 9.10672C58.6055 9.22387 57.9155 10.0933 57.9155 11.0647V24.1932C57.9155 25.1646 58.6055 26.0338 59.5589 26.1512C60.7016 26.2916 61.6732 25.3933 61.6732 24.2655V10.9925C61.6732 9.86464 60.7016 8.96607 59.5589 9.10672Z" fill="white"/>
</g>
<mask id="mask58_4002_1392" style="mask-type:luminance" maskUnits="userSpaceOnUse" x="0" y="0" width="75" height="59">
<path d="M0 6.8844e-06H75V59H0V6.8844e-06Z" fill="white"/>
</mask>
<g mask="url(#mask58_4002_1392)">
<path d="M61.6251 6.02199C61.9291 7.40819 60.7346 8.61629 59.3641 8.30884C58.6732 8.15392 58.1159 7.59017 57.9627 6.89171C57.659 5.5055 58.8532 4.29741 60.224 4.60486C60.9146 4.75977 61.472 5.32353 61.6251 6.02199Z" fill="#1673BA"/>
</g>
<mask id="mask59_4002_1392" style="mask-type:luminance" maskUnits="userSpaceOnUse" x="0" y="0" width="75" height="59">
<path d="M0 6.8844e-06H75V59H0V6.8844e-06Z" fill="white"/>
</mask>
<g mask="url(#mask59_4002_1392)">
<path d="M6.79381 24.2655V17.0606C6.79381 14.21 8.08556 12.7453 10.1211 12.7453C12.0614 12.7453 13.3584 14.1151 13.4757 16.6782C13.4725 16.8063 13.4628 16.9286 13.4628 17.0606V24.1804C13.4628 25.1584 14.1572 26.0332 15.117 26.1512C16.2671 26.2924 17.2449 25.3882 17.2449 24.253V17.0606C17.2449 16.9274 17.2352 16.8034 17.2316 16.6734C17.3454 14.0794 18.6072 12.7453 20.5477 12.7453C22.5827 12.7453 23.9138 14.2495 23.9138 17.0606V24.2655C23.9138 25.3148 24.7549 26.1658 25.7927 26.1658C26.8301 26.1658 27.6715 25.3148 27.6715 24.2655V17.0606C27.6715 14.4077 26.9665 12.3887 25.5578 11.0822C24.1484 9.77601 22.4651 9.10312 20.5477 9.10312C18.6298 9.10312 16.9465 9.77601 15.5377 11.0822C15.4666 11.1503 15.4045 11.2276 15.3369 11.2993C15.2675 11.2276 15.2043 11.15 15.1314 11.0822C13.7218 9.77601 12.0387 9.10312 10.1211 9.10312C8.20315 9.10312 6.51981 9.77601 5.11105 11.0822C3.74081 12.3887 3.03613 14.3681 3.03613 17.0606V24.2625C3.0379 23.2144 3.8781 22.3651 4.91468 22.3651C5.95243 22.3651 6.79381 23.2158 6.79381 24.2655Z" fill="white"/>
</g>
<mask id="mask60_4002_1392" style="mask-type:luminance" maskUnits="userSpaceOnUse" x="0" y="0" width="75" height="59">
<path d="M0 6.8844e-06H75V59H0V6.8844e-06Z" fill="white"/>
</mask>
<g mask="url(#mask60_4002_1392)">
<path d="M3.03645 24.2654V24.2622C3.03645 24.2632 3.03613 24.2642 3.03613 24.2654" fill="#F4BC45"/>
</g>
<mask id="mask61_4002_1392" style="mask-type:luminance" maskUnits="userSpaceOnUse" x="0" y="0" width="75" height="59">
<path d="M0 6.8844e-06H75V59H0V6.8844e-06Z" fill="white"/>
</mask>
<g mask="url(#mask61_4002_1392)">
<path d="M6.74621 23.8306C7.05019 25.2168 5.85574 26.4249 4.4852 26.1174C3.79434 25.9625 3.23695 25.3988 3.08379 24.7003C2.78011 23.3141 3.97426 22.106 5.3451 22.4135C6.03566 22.5684 6.59305 23.1321 6.74621 23.8306Z" fill="#F4BC45"/>
</g>
<mask id="mask62_4002_1392" style="mask-type:luminance" maskUnits="userSpaceOnUse" x="0" y="0" width="75" height="59">
<path d="M0 6.8844e-06H75V59H0V6.8844e-06Z" fill="white"/>
</mask>
<g mask="url(#mask62_4002_1392)">
<path d="M34.1341 24.2655V17.0606C34.1341 14.21 35.4259 12.7453 37.4614 12.7453C39.4017 12.7453 40.6987 14.1151 40.816 16.6782C40.8128 16.8063 40.8031 16.9286 40.8031 17.0606V24.1804C40.8031 25.1584 41.4975 26.0332 42.4573 26.1512C43.6074 26.2924 44.5852 25.3882 44.5852 24.253V17.0606C44.5852 16.9274 44.5755 16.8034 44.572 16.6734C44.6857 14.0794 45.9475 12.7453 47.8881 12.7453C49.923 12.7453 51.2542 14.2495 51.2542 17.0606V24.2655C51.2542 25.3148 52.0952 26.1658 53.133 26.1658C54.1705 26.1658 55.0118 25.3148 55.0118 24.2655V17.0606C55.0118 14.4077 54.3069 12.3887 52.8981 11.0822C51.4888 9.77601 49.8054 9.10312 47.8881 9.10312C45.9701 9.10312 44.2868 9.77601 42.878 11.0822C42.8069 11.1503 42.7449 11.2276 42.6772 11.2993C42.6079 11.2276 42.5447 11.15 42.4717 11.0822C41.0621 9.77601 39.3791 9.10312 37.4614 9.10312C35.5435 9.10312 33.8601 9.77601 32.4514 11.0822C31.0811 12.3887 30.3765 14.3681 30.3765 17.0606V24.2625C30.3782 23.2144 31.2184 22.3651 32.255 22.3651C33.2928 22.3651 34.1341 23.2158 34.1341 24.2655Z" fill="white"/>
</g>
<mask id="mask63_4002_1392" style="mask-type:luminance" maskUnits="userSpaceOnUse" x="0" y="0" width="75" height="59">
<path d="M0 6.8844e-06H75V59H0V6.8844e-06Z" fill="white"/>
</mask>
<g mask="url(#mask63_4002_1392)">
<path d="M30.3768 24.2654V24.2622C30.3768 24.2632 30.3765 24.2642 30.3765 24.2654" fill="#F4BC45"/>
</g>
<mask id="mask64_4002_1392" style="mask-type:luminance" maskUnits="userSpaceOnUse" x="0" y="0" width="75" height="59">
<path d="M0 6.8844e-06H75V59H0V6.8844e-06Z" fill="white"/>
</mask>
<g mask="url(#mask64_4002_1392)">
<path d="M34.0861 23.8306C34.39 25.2168 33.1956 26.4249 31.825 26.1174C31.1342 25.9625 30.5768 25.3988 30.4236 24.7003C30.1199 23.3141 31.3141 22.106 32.6849 22.4135C33.3755 22.5684 33.9329 23.1321 34.0861 23.8306Z" fill="#D90B3D"/>
</g>
</g>
<defs>
<clipPath id="clip0_4002_1392">
<rect width="75" height="59" fill="white"/>
</clipPath>
</defs>
</svg>
