<svg width="24" height="24" viewBox="0 0 24 24" fill="none" xmlns="http://www.w3.org/2000/svg">
<path d="M20.348 4.10469C23.0585 8.24529 24.3971 12.9158 23.8967 18.2926C23.8946 18.3153 23.8832 18.3362 23.8652 18.3499C21.8126 19.9159 19.8239 20.8663 17.8631 21.4965C17.8478 21.5014 17.8315 21.5011 17.8164 21.4958C17.8012 21.4905 17.7881 21.4804 17.7788 21.4669C17.3258 20.812 16.9142 20.1216 16.5536 19.3966C16.5329 19.3539 16.5518 19.3025 16.5944 19.2857C17.2481 19.0298 17.8697 18.723 18.4676 18.3599C18.5147 18.3312 18.5177 18.2611 18.4742 18.2274C18.3473 18.1296 18.2216 18.0267 18.1013 17.9238C18.0788 17.9048 18.0485 17.9011 18.023 17.9139C14.1413 19.7763 9.88909 19.7763 5.9615 17.9139C5.936 17.902 5.9057 17.9061 5.8838 17.9248C5.7638 18.0276 5.6378 18.1296 5.5121 18.2274C5.4686 18.2611 5.4722 18.3312 5.5196 18.3599C6.1175 18.7162 6.7391 19.0298 7.3919 19.2869C7.4342 19.3037 7.4543 19.3539 7.4333 19.3966C7.0805 20.1226 6.6689 20.813 6.2075 21.4679C6.1874 21.4944 6.1544 21.5065 6.1232 21.4965C4.1717 20.8663 2.18301 19.9159 0.130411 18.3499C0.113311 18.3362 0.101011 18.3144 0.0992107 18.2916C-0.318989 13.6408 0.53331 8.93165 3.6446 4.10376C3.6521 4.09098 3.6635 4.081 3.6767 4.07508C5.2076 3.34508 6.8477 2.80803 8.5619 2.50131C8.5931 2.49633 8.6243 2.51129 8.6405 2.53996C8.8523 2.92959 9.0944 3.42924 9.25819 3.83757C11.0651 3.5508 12.9002 3.5508 14.7449 3.83757C14.9087 3.43797 15.1424 2.92959 15.3533 2.53996C15.3608 2.52574 15.3724 2.51434 15.3866 2.5074C15.4007 2.50046 15.4165 2.49833 15.4319 2.50131C17.147 2.80896 18.7871 3.34602 20.3168 4.07508C20.3303 4.081 20.3414 4.09098 20.348 4.10469ZM10.1768 12.9476C10.1957 11.5727 9.2309 10.435 8.0198 10.435C6.8186 10.435 5.8631 11.5627 5.8631 12.9476C5.8631 14.3321 6.8375 15.4599 8.0198 15.4599C9.2213 15.4599 10.1768 14.3321 10.1768 12.9476ZM18.1514 12.9476C18.1703 11.5727 17.2055 10.435 15.9947 10.435C14.7932 10.435 13.8377 11.5627 13.8377 12.9476C13.8377 14.3321 14.8121 15.4599 15.9947 15.4599C17.2055 15.4599 18.1514 14.3321 18.1514 12.9476Z" fill="white"/>
</svg>
