<svg width="159" height="57" viewBox="0 0 159 57" fill="none" xmlns="http://www.w3.org/2000/svg">
<path fill-rule="evenodd" clip-rule="evenodd" d="M33.8391 41.7941C-3.60837 55.9082 -6.04584 37.0917 16.7555 26.6204C-12.2014 39.9185 -1.98302 56.6635 34.778 43.1022L33.8391 41.7941ZM51.1484 33.9457L52.0494 35.2103C79.9743 19.4419 63.2248 10.7979 39.1988 17.5284C62.4951 11.4534 76.6265 19.5339 51.1484 33.9457Z" fill="#F0F0F0"/>
<path d="M39.5415 40.6327L39.1246 40.0305L35.1948 40.4521L37.6963 44.0653L39.9585 41.2349L39.5415 40.6327Z" fill="white"/>
<path d="M45.0646 34.4474L48.4 39.2651L50.4275 34.9156L45.0646 34.4474Z" fill="white"/>
<path fill-rule="evenodd" clip-rule="evenodd" d="M45.0646 34.4474L37.8738 38.2239L38.2908 38.8261L38.7077 39.4283L39.1246 40.0305L39.5415 40.6327L39.9585 41.2349L40.3754 41.8372L40.7923 42.4394L41.2092 43.0416L48.4 39.2651L45.0646 34.4474ZM43.7187 37.6178C42.8199 38.0898 43.6537 39.2943 44.5526 38.8222C45.5513 38.2977 44.7174 37.0933 43.7187 37.6178Z" fill="white"/>
<path fill-rule="evenodd" clip-rule="evenodd" d="M44.0532 21.2609C40.0749 19.5215 37.0455 16.1435 35.7479 12L31.9899 0L28.2319 12C26.9343 16.1435 23.9049 19.5215 19.9266 21.2609L10.5132 25.3768L19.9266 29.4926C23.9049 31.232 26.9343 34.61 28.2319 38.7535L28.8766 40.8121C31.6726 39.9749 34.7935 38.5448 36.0045 37.9343C37.1391 34.3112 39.788 31.3575 43.2667 29.8365L53.4667 25.3768L44.0532 21.2609Z" fill="white"/>
<path d="M83.2506 20.224H89.1706V21.248H83.2506V20.224ZM83.3786 26H82.1946V14.8H89.8746V15.824H83.3786V26ZM95.2224 26.08C94.4117 26.08 93.681 25.8987 93.0304 25.536C92.3904 25.1627 91.8837 24.656 91.5104 24.016C91.137 23.3653 90.9504 22.624 90.9504 21.792C90.9504 20.9493 91.137 20.208 91.5104 19.568C91.8837 18.928 92.3904 18.4267 93.0304 18.064C93.6704 17.7013 94.401 17.52 95.2224 17.52C96.0544 17.52 96.7904 17.7013 97.4304 18.064C98.081 18.4267 98.5877 18.928 98.9504 19.568C99.3237 20.208 99.5104 20.9493 99.5104 21.792C99.5104 22.624 99.3237 23.3653 98.9504 24.016C98.5877 24.656 98.081 25.1627 97.4304 25.536C96.7797 25.8987 96.0437 26.08 95.2224 26.08ZM95.2224 25.072C95.8304 25.072 96.369 24.9387 96.8384 24.672C97.3077 24.3947 97.6757 24.0107 97.9424 23.52C98.2197 23.0187 98.3584 22.4427 98.3584 21.792C98.3584 21.1307 98.2197 20.5547 97.9424 20.064C97.6757 19.5733 97.3077 19.1947 96.8384 18.928C96.369 18.6507 95.8357 18.512 95.2384 18.512C94.641 18.512 94.1077 18.6507 93.6384 18.928C93.169 19.1947 92.7957 19.5733 92.5184 20.064C92.241 20.5547 92.1024 21.1307 92.1024 21.792C92.1024 22.4427 92.241 23.0187 92.5184 23.52C92.7957 24.0107 93.169 24.3947 93.6384 24.672C94.1077 24.9387 94.6357 25.072 95.2224 25.072ZM101.83 26V17.6H102.918V19.888L102.806 19.488C103.04 18.848 103.435 18.3627 103.99 18.032C104.544 17.6907 105.232 17.52 106.054 17.52V18.624C106.011 18.624 105.968 18.624 105.926 18.624C105.883 18.6133 105.84 18.608 105.798 18.608C104.912 18.608 104.219 18.88 103.718 19.424C103.216 19.9573 102.966 20.72 102.966 21.712V26H101.83ZM111.632 29.184C110.864 29.184 110.128 29.072 109.424 28.848C108.72 28.624 108.15 28.304 107.712 27.888L108.288 27.024C108.683 27.376 109.168 27.6533 109.744 27.856C110.331 28.0693 110.95 28.176 111.6 28.176C112.667 28.176 113.451 27.9253 113.952 27.424C114.454 26.9333 114.704 26.1653 114.704 25.12V23.024L114.864 21.584L114.752 20.144V17.6H115.84V24.976C115.84 26.4267 115.483 27.488 114.768 28.16C114.064 28.8427 113.019 29.184 111.632 29.184ZM111.424 25.68C110.624 25.68 109.904 25.5093 109.264 25.168C108.624 24.816 108.118 24.3307 107.744 23.712C107.382 23.0933 107.2 22.384 107.2 21.584C107.2 20.784 107.382 20.08 107.744 19.472C108.118 18.8533 108.624 18.3733 109.264 18.032C109.904 17.6907 110.624 17.52 111.424 17.52C112.171 17.52 112.843 17.6747 113.44 17.984C114.038 18.2933 114.512 18.752 114.864 19.36C115.216 19.968 115.392 20.7093 115.392 21.584C115.392 22.4587 115.216 23.2 114.864 23.808C114.512 24.416 114.038 24.88 113.44 25.2C112.843 25.52 112.171 25.68 111.424 25.68ZM111.536 24.672C112.155 24.672 112.704 24.544 113.184 24.288C113.664 24.0213 114.043 23.6587 114.32 23.2C114.598 22.7307 114.736 22.192 114.736 21.584C114.736 20.976 114.598 20.4427 114.32 19.984C114.043 19.5253 113.664 19.168 113.184 18.912C112.704 18.6453 112.155 18.512 111.536 18.512C110.928 18.512 110.379 18.6453 109.888 18.912C109.408 19.168 109.03 19.5253 108.752 19.984C108.486 20.4427 108.352 20.976 108.352 21.584C108.352 22.192 108.486 22.7307 108.752 23.2C109.03 23.6587 109.408 24.0213 109.888 24.288C110.379 24.544 110.928 24.672 111.536 24.672ZM122.425 26.08C121.615 26.08 120.884 25.8987 120.233 25.536C119.593 25.1627 119.087 24.656 118.713 24.016C118.34 23.3653 118.153 22.624 118.153 21.792C118.153 20.9493 118.34 20.208 118.713 19.568C119.087 18.928 119.593 18.4267 120.233 18.064C120.873 17.7013 121.604 17.52 122.425 17.52C123.257 17.52 123.993 17.7013 124.633 18.064C125.284 18.4267 125.791 18.928 126.153 19.568C126.527 20.208 126.713 20.9493 126.713 21.792C126.713 22.624 126.527 23.3653 126.153 24.016C125.791 24.656 125.284 25.1627 124.633 25.536C123.983 25.8987 123.247 26.08 122.425 26.08ZM122.425 25.072C123.033 25.072 123.572 24.9387 124.041 24.672C124.511 24.3947 124.879 24.0107 125.145 23.52C125.423 23.0187 125.561 22.4427 125.561 21.792C125.561 21.1307 125.423 20.5547 125.145 20.064C124.879 19.5733 124.511 19.1947 124.041 18.928C123.572 18.6507 123.039 18.512 122.441 18.512C121.844 18.512 121.311 18.6507 120.841 18.928C120.372 19.1947 119.999 19.5733 119.721 20.064C119.444 20.5547 119.305 21.1307 119.305 21.792C119.305 22.4427 119.444 23.0187 119.721 23.52C119.999 24.0107 120.372 24.3947 120.841 24.672C121.311 24.9387 121.839 25.072 122.425 25.072ZM131.689 26.08C130.899 26.08 130.291 25.8667 129.865 25.44C129.438 25.0133 129.225 24.4107 129.225 23.632V15.744H130.361V23.568C130.361 24.0587 130.483 24.4373 130.729 24.704C130.985 24.9707 131.347 25.104 131.817 25.104C132.318 25.104 132.734 24.96 133.065 24.672L133.465 25.488C133.241 25.6907 132.969 25.84 132.649 25.936C132.339 26.032 132.019 26.08 131.689 26.08ZM127.721 18.544V17.6H132.921V18.544H127.721ZM137.97 26.08C137.181 26.08 136.573 25.8667 136.146 25.44C135.719 25.0133 135.506 24.4107 135.506 23.632V15.744H136.642V23.568C136.642 24.0587 136.765 24.4373 137.01 24.704C137.266 24.9707 137.629 25.104 138.098 25.104C138.599 25.104 139.015 24.96 139.346 24.672L139.746 25.488C139.522 25.6907 139.25 25.84 138.93 25.936C138.621 26.032 138.301 26.08 137.97 26.08ZM134.002 18.544V17.6H139.202V18.544H134.002ZM145.085 26.08C144.21 26.08 143.442 25.8987 142.781 25.536C142.12 25.1627 141.602 24.656 141.229 24.016C140.856 23.3653 140.669 22.624 140.669 21.792C140.669 20.96 140.845 20.224 141.197 19.584C141.56 18.944 142.05 18.4427 142.669 18.08C143.298 17.7067 144.002 17.52 144.781 17.52C145.57 17.52 146.269 17.7013 146.877 18.064C147.496 18.416 147.981 18.9173 148.333 19.568C148.685 20.208 148.861 20.9493 148.861 21.792C148.861 21.8453 148.856 21.904 148.845 21.968C148.845 22.0213 148.845 22.08 148.845 22.144H141.533V21.296H148.237L147.789 21.632C147.789 21.024 147.656 20.4853 147.389 20.016C147.133 19.536 146.781 19.1627 146.333 18.896C145.885 18.6293 145.368 18.496 144.781 18.496C144.205 18.496 143.688 18.6293 143.229 18.896C142.77 19.1627 142.413 19.536 142.157 20.016C141.901 20.496 141.773 21.0453 141.773 21.664V21.84C141.773 22.48 141.912 23.0453 142.189 23.536C142.477 24.016 142.872 24.3947 143.373 24.672C143.885 24.9387 144.466 25.072 145.117 25.072C145.629 25.072 146.104 24.9813 146.541 24.8C146.989 24.6187 147.373 24.3413 147.693 23.968L148.333 24.704C147.96 25.152 147.49 25.4933 146.925 25.728C146.37 25.9627 145.757 26.08 145.085 26.08ZM155.461 17.52C156.144 17.52 156.741 17.6533 157.253 17.92C157.776 18.176 158.181 18.5707 158.469 19.104C158.768 19.6373 158.917 20.3093 158.917 21.12V26H157.781V21.232C157.781 20.3467 157.557 19.68 157.109 19.232C156.672 18.7733 156.053 18.544 155.253 18.544C154.656 18.544 154.133 18.6667 153.685 18.912C153.248 19.1467 152.907 19.4933 152.661 19.952C152.427 20.4 152.309 20.944 152.309 21.584V26H151.173V17.6H152.261V19.904L152.085 19.472C152.352 18.864 152.779 18.3893 153.365 18.048C153.952 17.696 154.651 17.52 155.461 17.52ZM85.2826 46.096C84.4506 46.096 83.6506 45.9627 82.8826 45.696C82.1253 45.4187 81.5386 45.0667 81.1226 44.64L81.5866 43.728C81.9813 44.112 82.5093 44.4373 83.1706 44.704C83.8426 44.96 84.5466 45.088 85.2826 45.088C85.9866 45.088 86.5573 45.0027 86.9946 44.832C87.4426 44.6507 87.7679 44.4107 87.9706 44.112C88.1839 43.8133 88.2906 43.4827 88.2906 43.12C88.2906 42.6827 88.1626 42.3307 87.9066 42.064C87.6613 41.7973 87.3359 41.5893 86.9306 41.44C86.5253 41.28 86.0773 41.1413 85.5866 41.024C85.0959 40.9067 84.6053 40.784 84.1146 40.656C83.6239 40.5173 83.1706 40.336 82.7546 40.112C82.3493 39.888 82.0186 39.5947 81.7626 39.232C81.5173 38.8587 81.3946 38.3733 81.3946 37.776C81.3946 37.2213 81.5386 36.7147 81.8266 36.256C82.1253 35.7867 82.5786 35.4133 83.1866 35.136C83.7946 34.848 84.5733 34.704 85.5226 34.704C86.1519 34.704 86.7759 34.7947 87.3946 34.976C88.0133 35.1467 88.5466 35.3867 88.9946 35.696L88.5946 36.64C88.1146 36.32 87.6026 36.0853 87.0586 35.936C86.5253 35.7867 86.0079 35.712 85.5066 35.712C84.8346 35.712 84.2799 35.8027 83.8426 35.984C83.4053 36.1653 83.0799 36.4107 82.8666 36.72C82.6639 37.0187 82.5626 37.36 82.5626 37.744C82.5626 38.1813 82.6853 38.5333 82.9306 38.8C83.1866 39.0667 83.5173 39.2747 83.9226 39.424C84.3386 39.5733 84.7919 39.7067 85.2826 39.824C85.7733 39.9413 86.2586 40.0693 86.7386 40.208C87.2293 40.3467 87.6773 40.528 88.0826 40.752C88.4986 40.9653 88.8293 41.2533 89.0746 41.616C89.3306 41.9787 89.4586 42.4533 89.4586 43.04C89.4586 43.584 89.3093 44.0907 89.0106 44.56C88.7119 45.0187 88.2533 45.392 87.6346 45.68C87.0266 45.9573 86.2426 46.096 85.2826 46.096ZM94.4544 46.08C93.665 46.08 93.057 45.8667 92.6304 45.44C92.2037 45.0133 91.9904 44.4107 91.9904 43.632V35.744H93.1264V43.568C93.1264 44.0587 93.249 44.4373 93.4944 44.704C93.7504 44.9707 94.113 45.104 94.5824 45.104C95.0837 45.104 95.4997 44.96 95.8304 44.672L96.2304 45.488C96.0064 45.6907 95.7344 45.84 95.4144 45.936C95.105 46.032 94.785 46.08 94.4544 46.08ZM90.4864 38.544V37.6H95.6864V38.544H90.4864ZM103.562 46V44.144L103.514 43.84V40.736C103.514 40.0213 103.312 39.472 102.906 39.088C102.512 38.704 101.92 38.512 101.13 38.512C100.586 38.512 100.069 38.6027 99.5784 38.784C99.0877 38.9653 98.6717 39.2053 98.3304 39.504L97.8184 38.656C98.245 38.2933 98.757 38.016 99.3544 37.824C99.9517 37.6213 100.581 37.52 101.242 37.52C102.33 37.52 103.168 37.792 103.754 38.336C104.352 38.8693 104.65 39.6853 104.65 40.784V46H103.562ZM100.666 46.08C100.037 46.08 99.4877 45.9787 99.0184 45.776C98.5597 45.5627 98.2077 45.2747 97.9624 44.912C97.717 44.5387 97.5944 44.112 97.5944 43.632C97.5944 43.1947 97.6957 42.8 97.8984 42.448C98.1117 42.0853 98.453 41.7973 98.9224 41.584C99.4024 41.36 100.042 41.248 100.842 41.248H103.738V42.096H100.874C100.064 42.096 99.4984 42.24 99.1784 42.528C98.869 42.816 98.7144 43.1733 98.7144 43.6C98.7144 44.08 98.901 44.464 99.2744 44.752C99.6477 45.04 100.17 45.184 100.842 45.184C101.482 45.184 102.032 45.04 102.49 44.752C102.96 44.4533 103.301 44.0267 103.514 43.472L103.77 44.256C103.557 44.8107 103.184 45.2533 102.65 45.584C102.128 45.9147 101.466 46.08 100.666 46.08ZM107.736 46V37.6H108.824V39.888L108.712 39.488C108.947 38.848 109.341 38.3627 109.896 38.032C110.451 37.6907 111.139 37.52 111.96 37.52V38.624C111.917 38.624 111.875 38.624 111.832 38.624C111.789 38.6133 111.747 38.608 111.704 38.608C110.819 38.608 110.125 38.88 109.624 39.424C109.123 39.9573 108.872 40.72 108.872 41.712V46H107.736Z" fill="white"/>
</svg>
