<svg width="24" height="25" viewBox="0 0 24 25" fill="none" xmlns="http://www.w3.org/2000/svg">
<path d="M9.78906 0C15.1951 0.000128562 19.578 4.44398 19.5781 9.92578C19.5781 15.4077 15.1952 19.8524 9.78906 19.8525C4.38284 19.8525 0 15.4078 0 9.92578C0.000131134 4.4439 4.38292 0 9.78906 0ZM9.78906 2.06836C5.50922 2.06836 2.03919 5.58598 2.03906 9.92578C2.03906 14.2657 5.50914 17.7842 9.78906 17.7842C14.0689 17.7841 17.5381 14.2656 17.5381 9.92578C17.538 5.58605 14.0688 2.06847 9.78906 2.06836Z" fill="white"/>
<path d="M16.7495 15L22.8728 21.1233C23.3559 21.6064 23.3559 22.3897 22.8728 22.8728C22.3897 23.356 21.6064 23.356 21.1233 22.8728L15 16.7495L16.7495 15Z" fill="white"/>
</svg>
