<svg width="50" height="32" viewBox="0 0 50 32" fill="none" xmlns="http://www.w3.org/2000/svg">
<path d="M45.6035 0H4.3966C1.97231 0 0 1.97438 0 4.40122V27.5988C0 30.0256 1.97231 32 4.3966 32H45.6034C48.0277 32 50 30.0256 50 27.5988V4.40122C50 1.97438 48.0277 0 45.6035 0ZM45.6035 1.08226C46.4655 1.08226 47.2515 1.41353 47.8418 1.95529L27.2328 16.8592C25.8974 17.8251 24.1029 17.8251 22.7675 16.8592L2.15834 1.95517C2.7486 1.41348 3.53462 1.08226 4.3966 1.08226H45.6035ZM1.08112 27.5988V4.40122C1.08112 3.82366 1.22952 3.28026 1.48976 2.80673L20.4987 16.5536L2.02421 29.914C1.44131 29.3156 1.08112 28.4987 1.08112 27.5988ZM4.3966 30.9177C3.87664 30.9177 3.38441 30.797 2.94595 30.5825L21.4218 17.2212L22.1344 17.7364C22.9914 18.3563 23.9958 18.6662 25.0001 18.6662C26.0045 18.6662 27.0088 18.3563 27.8659 17.7364L28.5785 17.2211L47.0542 30.5824C46.6158 30.797 46.1235 30.9177 45.6035 30.9177H4.3966ZM48.9189 27.5988C48.9189 28.4986 48.5588 29.3155 47.9759 29.9139L29.5015 16.5536L48.5103 2.8069C48.7705 3.28038 48.9189 3.82372 48.9189 4.40122V27.5988H48.9189Z" fill="black"/>
</svg>
